<svg xmlns="http://www.w3.org/2000/svg" viewBox="0 0 438.1 262.9"><defs><style>.cls-1{fill:#fff;opacity:0;}.cls-2{fill:#f4f4f4;fill-rule:evenodd;}</style></defs><title>rr-5</title><g id="Capa_2" data-name="Capa 2"><g id="Capa_1-2" data-name="Capa 1"><rect class="cls-1" width="438.1" height="262.9"/><path class="cls-2" d="M95.42,164.74C93.57,143.33,107.68,126,123.09,124c9.43,19.09-8.1,37.33-27.67,40.78Z"/><path class="cls-2" d="M112,111.27a36,36,0,0,1,7.28,6.67C99.54,128.46,93.48,147.66,94,165c-.85.16-1.8.23-2.58.37-1.46-25,9.53-42.94,20.56-54.07Z"/><path class="cls-2" d="M96.55,104.56a39.38,39.38,0,0,1,9.34,3.21c-11,21.28-16.49,33.34-15.71,57.7h0l-2.53.16h0c.21-34.24,3.36-41.08,8.9-61.07Z"/><path class="cls-2" d="M89.94,103.55a54.93,54.93,0,0,0-9.41-.09c3,20.83,3.35,29.65,3.91,62.23.71,0,1.22,0,2.09,0-.13-32.37.58-41.09,3.41-62.11Z"/><path class="cls-2" d="M74.21,104.56a39.28,39.28,0,0,0-9.33,3.21c11,21.28,16.49,33.34,15.69,57.7h0l2.55.16h0c-.22-34.24-3.37-41.08-8.91-61.07Z"/><path class="cls-2" d="M58.8,111.27a36.35,36.35,0,0,0-7.28,6.67c19.71,10.51,25.76,29.71,25.25,47,.87.16,1.82.23,2.6.37,1.46-25-9.51-42.94-20.56-54.07Z"/><path class="cls-2" d="M75.35,164.74C77.18,143.33,63.09,126,47.67,124c-9.45,19.09,8.08,37.33,27.67,40.78Z"/><path class="cls-2" d="M136.92,115.12H155.1a47.76,47.76,0,0,1,9.17.59,18.88,18.88,0,0,1,7.36,3.17,15.58,15.58,0,0,1,4.68,5.64,19.28,19.28,0,0,1,1.65,8.25,17.1,17.1,0,0,1-1.65,7.36,15.66,15.66,0,0,1-5.08,6.07,24.09,24.09,0,0,1-7,2.77,47.08,47.08,0,0,1-8.78.69H136.92V115.12Zm11.84,25.83h5.51c3.63,0,6.47-.73,8.48-2.28a7.63,7.63,0,0,0,3.1-6.4,7.4,7.4,0,0,0-3.23-6.37,15.81,15.81,0,0,0-9.14-2.38h-4.72v17.42Z"/><path class="cls-2" d="M296.76,148.54H286.9l-6.7-13.89L274,148.5H263.5l-9.7-24H232.3V129h19.07v7.55H232.3v4.22h21.51v7.82H193.53l-4.65-7.75-3.43,7.75H172.32l15.44-32.4h18.11l14.88,32.4v-32.4h41.07l8.15,20,5.64-11.32-4-8.71h17.45l-4.26,8.71,5.64,11.32,8.31-20h11.38l-13.39,32.36ZM196.5,124l-7.36,16.36h15.51L196.5,124Z"/><path class="cls-2" d="M326.72,113.67c12.21,0,22.17,8.41,22.17,18.64s-10,18.61-22.17,18.61-22.14-8.38-22.14-18.61,9.93-18.64,22.14-18.64ZM317,132.31c0,6.1,4.39,11.08,9.73,11.08s9.73-5,9.73-11.08-4.39-11.08-9.73-11.08-9.73,5-9.73,11.08Z"/><path class="cls-2" d="M370.89,113.67c12.21,0,22.17,8.41,22.17,18.64s-10,18.61-22.17,18.61-22.14-8.38-22.14-18.61,9.93-18.64,22.14-18.64Zm-9.73,18.64c0,6.1,4.39,11.08,9.73,11.08s9.73-5,9.73-11.08-4.39-11.08-9.73-11.08-9.73,5-9.73,11.08Z"/></g></g></svg>