<svg xmlns="http://www.w3.org/2000/svg" viewBox="0 0 438.1 262.9"><defs><style>.cls-1{fill:#fff;opacity:0;}.cls-2{fill:#d3d2d3;}.cls-3{fill:#f4f4f4;fill-rule:evenodd;}</style></defs><title>rr-8_1</title><g id="Capa_2" data-name="Capa 2"><g id="Capa_1-2" data-name="Capa 1"><rect class="cls-1" width="438.1" height="262.9"/><path class="cls-2" d="M45.43,186.73V144.89H84.1v7.17H55.85s0,11.17,0,11.17H80.22v7.54H55.85v16Z"/><path class="cls-2" d="M180.06,168.85s10.42-1,10.42-12.42-11.54-11.54-11.54-11.54H146.81v41.83h10.13v-17h12.5l10.75,17h11.88Zm-4.46-6.42H157V152h18.38s4.67-.17,4.67,5.23S175.6,162.43,175.6,162.43Z"/><polygon class="cls-2" points="198.75 144.89 209.37 144.89 209.37 162.98 229.87 144.89 243.06 144.89 223.18 162.98 245.62 186.73 232 186.73 215.56 168.35 209.12 174.29 209.12 186.73 198.75 186.73 198.75 144.89"/><polygon class="cls-2" points="249.5 144.89 259.56 144.89 259.56 179.1 283.37 179.1 283.37 186.73 249.5 186.73 249.5 144.89"/><rect class="cls-2" x="288.68" y="144.89" width="10.06" height="41.83"/><polygon class="cls-2" points="351.75 144.89 393.5 144.89 393.5 152.35 377.37 152.35 377.37 186.73 367.37 186.73 367.37 152.35 351.75 152.35 351.75 144.89"/><path class="cls-2" d="M308.87,186.73V144.89h38.67v7.17H319.29s0,11.17,0,11.17h24.38v7.54H319.29v16Z"/><path class="cls-2" d="M140.6,165.81a27.23,27.23,0,1,0-42.08,22.82V160.89l16.17-9.33,15.5,9.08-15.83,9.5V193A27.22,27.22,0,0,0,140.6,165.81Z"/><path class="cls-3" d="M115.92,75h12.14a1.2,1.2,0,0,1,1.2,1.2v46.67a1.2,1.2,0,0,1-1.2,1.2H115.92a1.2,1.2,0,0,1-1.2-1.2V76.18a1.2,1.2,0,0,1,1.2-1.2m-69.29.4H64.88a6.08,6.08,0,0,1,4.87,2.68l22.81,35.34V76.58a1.2,1.2,0,0,1,1.2-1.2h10.4a1.2,1.2,0,0,1,1.2,1.2v46.67a1.2,1.2,0,0,1-1.2,1.2l-17.78,0c-.66,0-4.26,0-5.88-2.94L58.39,87.11v36.14a1.2,1.2,0,0,1-1.2,1.2H46.63a1.2,1.2,0,0,1-1.2-1.2V76.58A1.2,1.2,0,0,1,46.63,75.38Zm288,0H353a6.1,6.1,0,0,1,4.87,2.68l22.81,35.34V76.58a1.2,1.2,0,0,1,1.2-1.2h10.4a1.2,1.2,0,0,1,1.2,1.2v46.67a1.2,1.2,0,0,1-1.2,1.2H374.52c-.66,0-4.26,0-5.89-2.92L346.52,87.11v36.14a1.2,1.2,0,0,1-1.2,1.2H334.6a1.2,1.2,0,0,1-1.2-1.2V76.58A1.2,1.2,0,0,1,334.6,75.38Zm-51.43,29.05h19.92L295,86.36h-3.66Zm24.41,10H278.67l-3.93,8.73a2.12,2.12,0,0,1-1.74,1.2H260.86c-.66,0-1-.54-.66-1.2l21-46.67a2.12,2.12,0,0,1,1.74-1.2h20.39a2.12,2.12,0,0,1,1.74,1.2l21,46.67c.3.66,0,1.2-.66,1.2H313.25a2.12,2.12,0,0,1-1.74-1.2ZM191.1,86.18h-36a1.6,1.6,0,0,0-1.6,1.6v2.77a1.6,1.6,0,0,0,1.56,1.6s29.74,2.8,29.89,2.91a11.94,11.94,0,0,1,9.24,11.66v5.35c0,6.74-3.45,12.38-15.13,12.38H140.45a1,1,0,0,1-1-1v-8.94a1,1,0,0,1,1-1h37.93a1.6,1.6,0,0,0,1.56-1.6v-3.77a1.6,1.6,0,0,0-1.6-1.6l-27.58-2.36-.21,0c-6.18-.24-11.12-4.69-11.12-10.93V87.76a12.38,12.38,0,0,1,12.09-12.38H191.1a1,1,0,0,1,1,1v8.77A1,1,0,0,1,191.1,86.18Zm62.37,0h-36a1.6,1.6,0,0,0-1.6,1.6v2.77a1.6,1.6,0,0,0,1.56,1.6s29.74,2.8,29.89,2.91a11.94,11.94,0,0,1,9.24,11.66v5.35c0,6.74-3.45,12.38-15.13,12.38H202.82a1,1,0,0,1-1-1v-8.94a1,1,0,0,1,1-1h37.93a1.6,1.6,0,0,0,1.56-1.6v-3.77a1.6,1.6,0,0,0-1.6-1.6l-27.58-2.36-.21,0c-6.18-.24-11.12-4.69-11.12-10.93V87.76A12.38,12.38,0,0,1,213.9,75.38h39.58a1,1,0,0,1,1,1v8.77A1,1,0,0,1,253.48,86.18Z"/></g></g></svg>