<svg xmlns="http://www.w3.org/2000/svg" viewBox="0 0 438.1 262.9"><defs><style>.cls-1{fill:#fff;opacity:0;}.cls-2,.cls-3{fill:#f4f4f4;}.cls-2{fill-rule:evenodd;}</style></defs><title>rr-2</title><g id="Capa_2" data-name="Capa 2"><g id="Capa_1-2" data-name="Capa 1"><rect class="cls-1" width="438.1" height="262.9"/><path class="cls-2" d="M258.3,86.64h29.87v68.94c0,9,3.79,12.4,17.87,12.4H346.4v10.47H280.33c-13.1,0-21.61-9.35-22-22.46Z"/><rect class="cls-3" x="349.89" y="86.86" width="32.71" height="91.59"/><polygon class="cls-2" points="55.5 86.86 83.85 86.86 83.85 122.47 132.04 122.47 132.04 86.86 160.39 86.86 160.39 178.44 132.04 178.44 132.04 139.85 83.85 139.85 83.85 178.44 55.5 178.44 55.5 86.86"/><path class="cls-2" d="M251.32,86.64V101H200.08c-4.22,0-8.07,3.83-8.07,7.33v14.11h59.31v17.16H192v17c0,4.37,3.71,7.87,8.73,7.87h50.58v14.39H184.6c-13.17,0-19-12.08-19-26.17V122.4c0-20.38,7.48-35.76,26.6-35.76Z"/></g></g></svg>