<svg xmlns="http://www.w3.org/2000/svg" viewBox="0 0 438.1 262.9"><defs><style>.cls-1{fill:#fff;opacity:0;}.cls-2{fill:none;}.cls-3{fill:#f4f4f4;}.cls-4{fill:#161518;}</style></defs><title>rr-7_1</title><g id="Capa_2" data-name="Capa 2"><g id="Capa_1-2" data-name="Capa 1"><rect class="cls-1" width="438.1" height="262.9"/><path class="cls-2" d="M378.18,131.91h-.86v10.67h.86a5.33,5.33,0,0,0,0-10.67Z"/><path class="cls-2" d="M170.45,129.48h-1.71v7h1.71a3.5,3.5,0,0,0,0-7Z"/><path class="cls-2" d="M309,132.12a4.51,4.51,0,1,0,4.51,4.51A4.52,4.52,0,0,0,309,132.12Z"/><path class="cls-3" d="M91.83,83.38a49.94,49.94,0,0,0-47.33,66H93.77v7.14H47.57a49.94,49.94,0,0,0,88.51,0h-13.3v-7.14h16.38a49.95,49.95,0,0,0-47.32-66Zm-13.16,61H56.57v-7.72H61V114H56.57v-7.22H77.81a10.61,10.61,0,0,1,8.56,16.88,11.8,11.8,0,0,1-7.7,20.73Zm47.84-15.15v7.43h-8.19v-7.43h-4v22.64h4.27v7.53H100.94v-7.53h4.27V129.23h-3.87v7.43H93.15V120.54H126.5Z"/><path class="cls-3" d="M75.57,128h-6v8.67h6a4.33,4.33,0,0,0,0-8.67Z"/><path class="cls-3" d="M79.22,117.37a3.4,3.4,0,0,0-3.4-3.38h-6.3v6.78h6.3A3.4,3.4,0,0,0,79.22,117.37Z"/><path class="cls-4" d="M44.47,149.41a47.45,47.45,0,0,0,3.06,7.14h0a49.69,49.69,0,0,1-3.07-7.14Z"/><path class="cls-4" d="M136.13,156.55a50.91,50.91,0,0,0,3.06-7.14h0a49.7,49.7,0,0,1-3.07,7.14Z"/><path class="cls-3" d="M200.55,122.08l-12.27,30.1,11.8,0,6.45-16.72L213,152.14l11.8,0-12.27-30.1Z"/><polygon class="cls-3" points="238.2 122.08 234.74 131.12 230.93 122.08 219.19 122.08 228.86 146.47 226.56 152.47 237.51 152.47 249.15 122.08 238.2 122.08"/><polygon class="cls-3" points="272.54 122.5 268.82 132.96 265.09 122.5 255.38 122.5 244.06 151.9 255.65 151.9 260.62 138.15 264.84 151.98 268.71 151.98 268.94 151.98 272.79 151.98 277.02 138.15 281.99 151.9 293.59 151.9 282.25 122.5 272.54 122.5"/><path class="cls-3" d="M309,120.34a16.29,16.29,0,1,0,16.29,16.29A16.29,16.29,0,0,0,309,120.34Zm0,20.8a4.51,4.51,0,1,1,4.51-4.51A4.51,4.51,0,0,1,309,141.14Z"/><path class="cls-3" d="M381.26,122.26H364.15v29.91h12.37v.08h4.75a15,15,0,1,0,0-30Zm-3.08,20.32h-.86V131.91h.86a5.33,5.33,0,0,1,0,10.67Z"/><polygon class="cls-3" points="348.48 134.4 339.59 122.53 327.76 122.53 327.76 152 339.59 152 339.59 140.1 348.48 152 360.31 152 360.31 122.53 348.48 122.53 348.48 134.4"/><path class="cls-3" d="M186.42,132.15a10,10,0,0,0-10-10h-20v29.93h12.29v-9.67l5.72,9.76h13.43l-6.6-11.3A10,10,0,0,0,186.42,132.15Zm-16,4.33h-1.71v-7h1.71a3.5,3.5,0,0,1,0,7Z"/></g></g></svg>