<svg xmlns="http://www.w3.org/2000/svg" viewBox="0 0 438.1 262.9"><defs><style>.cls-1{fill:#fff;opacity:0;}.cls-2{fill:#f4f4f4;}.cls-3{fill:#d3d2d3;}</style></defs><title>rr-10</title><g id="Capa_2" data-name="Capa 2"><g id="Capa_1-2" data-name="Capa 1"><rect class="cls-1" width="438.1" height="262.9"/><path class="cls-2" d="M106.44,151.74h3l2.73,6.19c.39.86,1.32,3.19,1.32,3.19h0l1.2-2.64,3.27-6.74h3.09v15.68h-2.49V155.69h0s-.86,2.24-1.3,3.1l-2.47,5.2h-2.37l-2.22-5.2c-.4-.91-1.22-3-1.22-3h0v11.63h-2.45V151.74"/><path class="cls-2" d="M130.37,160.34h.38v-.17c0-1.46-.93-2-2.17-2a6,6,0,0,0-3.08,1.08l-1.07-2a7.61,7.61,0,0,1,4.41-1.38c2.94,0,4.67,1.63,4.67,4.46v7h-2.57v-.92a7.82,7.82,0,0,1,0-.78h0a3.65,3.65,0,0,1-3.42,2,3.53,3.53,0,0,1-3.81-3.5c0-3.58,4.83-3.81,6.65-3.81m-2.13,5.13c1.47,0,2.53-1.59,2.53-2.95v-.27h-.49c-1.43,0-3.74.21-3.74,1.76a1.5,1.5,0,0,0,1.7,1.46"/><path class="cls-2" d="M141.83,155.89a5.73,5.73,0,0,1,4.31,1.67l-1.23,1.92a4.4,4.4,0,0,0-2.93-1.22,3.34,3.34,0,0,0-3.42,3.49,3.41,3.41,0,0,0,3.5,3.51,5.2,5.2,0,0,0,3.31-1.42l1.08,2a6.46,6.46,0,0,1-4.63,1.82,5.87,5.87,0,1,1,0-11.74"/><path class="cls-2" d="M148.32,151.75h2.81v5.41a8.31,8.31,0,0,1,0,.95h0a4.35,4.35,0,0,1,3.87-2.22c2.49,0,3.9,1.29,3.9,4.28v7.2h-2.78v-6.65c0-1.36-.35-2.28-1.77-2.28a3.15,3.15,0,0,0-3,2.33,5.11,5.11,0,0,0-.18,1.45v5.15h-2.81V151.75"/><rect class="cls-2" x="161.95" y="151.75" width="2.78" height="2.49"/><rect class="cls-2" x="161.95" y="156.15" width="2.81" height="11.23"/><path class="cls-2" d="M168,156.15h2.69v1.31a5.75,5.75,0,0,1-.05.76h.05a4.34,4.34,0,0,1,4-2.32c2.49,0,3.89,1.29,3.89,4.28v7.2h-2.77v-6.65c0-1.35-.35-2.28-1.78-2.28a3.12,3.12,0,0,0-3,2.28,5.14,5.14,0,0,0-.19,1.5v5.15H168V156.15"/><path class="cls-2" d="M186.5,155.89c3.22,0,5,2.35,5,5.33,0,.32-.07,1.06-.07,1.06h-7.75a3.21,3.21,0,0,0,3.37,3,5.52,5.52,0,0,0,3.23-1.24l1.08,2a7,7,0,0,1-4.52,1.6,5.75,5.75,0,0,1-6-5.86,5.56,5.56,0,0,1,5.71-5.88m2.15,4.49a2.17,2.17,0,0,0-2.23-2.33,2.6,2.6,0,0,0-2.68,2.33Z"/><path class="cls-2" d="M194.42,164a4.68,4.68,0,0,0,3.06,1.24c.79,0,1.48-.36,1.48-1,0-1.67-5.46-1.45-5.46-5,0-2.1,1.88-3.31,4.3-3.31a5.38,5.38,0,0,1,3.77,1.28l-1,2.06a4.3,4.3,0,0,0-2.76-1c-.72,0-1.43.31-1.43,1,0,1.59,5.46,1.38,5.46,5,0,1.87-1.63,3.36-4.3,3.36a6.28,6.28,0,0,1-4.35-1.64l1.27-2"/><rect class="cls-2" x="204.05" y="164.58" width="2.81" height="2.79"/><rect class="cls-2" x="215.09" y="151.75" width="2.83" height="15.63"/><path class="cls-2" d="M225.82,155.89c2.45,0,3.22,1.44,3.22,1.44h.05s0-.28,0-.64v-4.94h2.79v15.63h-2.63v-.92a6.1,6.1,0,0,1,0-.72h0a3.94,3.94,0,0,1-3.54,1.9c-3,0-5-2.38-5-5.86s2.1-5.88,5.09-5.88m.51,9.4c1.46,0,2.82-1.06,2.82-3.54,0-1.74-.94-3.46-2.79-3.46-1.54,0-2.82,1.26-2.82,3.49s1.15,3.51,2.8,3.51"/><path class="cls-2" d="M240,155.89c3.24,0,5,2.35,5,5.33,0,.32-.06,1.06-.06,1.06h-7.75a3.21,3.21,0,0,0,3.37,3,5.53,5.53,0,0,0,3.23-1.24l1.08,2a7,7,0,0,1-4.53,1.6,5.75,5.75,0,0,1-6-5.86,5.55,5.55,0,0,1,5.7-5.88m2.17,4.49A2.17,2.17,0,0,0,240,158a2.59,2.59,0,0,0-2.68,2.33Z"/><path class="cls-2" d="M253.33,160.34h.37v-.17c0-1.46-.92-2-2.17-2a6,6,0,0,0-3.08,1.08l-1.05-2a7.59,7.59,0,0,1,4.4-1.38c2.95,0,4.67,1.63,4.67,4.46v7h-2.56v-.92c0-.44,0-.78,0-.78h0a3.66,3.66,0,0,1-3.43,2,3.53,3.53,0,0,1-3.8-3.5c0-3.58,4.82-3.81,6.65-3.81m-2.14,5.13c1.47,0,2.52-1.59,2.52-2.95v-.27h-.49c-1.42,0-3.73.21-3.73,1.76a1.5,1.5,0,0,0,1.69,1.46"/><path class="cls-2" d="M259.84,164a4.67,4.67,0,0,0,3.06,1.24c.79,0,1.47-.36,1.47-1,0-1.67-5.46-1.45-5.46-5,0-2.1,1.87-3.31,4.29-3.31a5.37,5.37,0,0,1,3.77,1.28l-1.05,2.06a4.25,4.25,0,0,0-2.74-1c-.73,0-1.44.31-1.44,1,0,1.59,5.47,1.38,5.47,5,0,1.87-1.64,3.36-4.31,3.36a6.34,6.34,0,0,1-4.36-1.64l1.28-2"/><rect class="cls-2" x="269.48" y="164.58" width="2.81" height="2.79"/><path class="cls-2" d="M280.85,163.36a6.28,6.28,0,0,0,3.91,1.67,2,2,0,0,0,2.26-1.9c0-2.79-7.37-2.31-7.37-7.11,0-2.6,2.26-4.54,5.24-4.54a6.6,6.6,0,0,1,4.67,1.68l-1.23,2.31a5.66,5.66,0,0,0-3.46-1.37,2.1,2.1,0,0,0-2.34,1.87c0,2.78,7.34,2.1,7.34,7.1,0,2.49-1.88,4.56-5.14,4.56a7.57,7.57,0,0,1-5.4-2.13l1.52-2.14"/><path class="cls-2" d="M297.86,155.89a5.88,5.88,0,1,1-6.17,5.88,5.9,5.9,0,0,1,6.17-5.88m0,9.37a3.5,3.5,0,1,0-3.35-3.49,3.34,3.34,0,0,0,3.35,3.49"/><path class="cls-2" d="M306.26,151.75H309v11.7c0,1.24.4,1.55,1.13,1.55h.44v2.42a5.9,5.9,0,0,1-.9.08c-1.54,0-3.46-.4-3.46-3.62V151.75"/><path class="cls-2" d="M312.64,156.15h2.81v6.65c0,1.37.35,2.29,1.73,2.29,2,0,3.15-1.78,3.15-3.79v-5.15h2.79v11.23h-2.68v-1.28c0-.42,0-.78,0-.78h0a4.35,4.35,0,0,1-3.91,2.32c-2.38,0-3.9-1.19-3.9-4.27v-7.22"/><path class="cls-2" d="M326.83,158.56h-1.46v-2.23h1.52V153.1h2.72v3.23h2.56v2.23h-2.56v4.36a2,2,0,0,0,2.23,2.12,3,3,0,0,0,.51,0v2.42a4.25,4.25,0,0,1-.86.08c-1.56,0-4.67-.47-4.67-4.23v-4.7"/><rect class="cls-2" x="335.03" y="151.75" width="2.77" height="2.49"/><rect class="cls-2" x="335.03" y="156.15" width="2.79" height="11.23"/><path class="cls-2" d="M346.38,155.89a5.88,5.88,0,1,1-6.16,5.88,5.91,5.91,0,0,1,6.16-5.88m0,9.37a3.5,3.5,0,1,0-3.35-3.49,3.33,3.33,0,0,0,3.35,3.49"/><path class="cls-2" d="M354.94,156.15h2.68v1.31c0,.41,0,.76,0,.76h0a4.37,4.37,0,0,1,4-2.32c2.5,0,3.88,1.29,3.88,4.28v7.2h-2.77v-6.65c0-1.35-.35-2.28-1.78-2.28a3.11,3.11,0,0,0-3,2.28,4.82,4.82,0,0,0-.19,1.5v5.15h-2.79V156.15"/><path class="cls-2" d="M368.9,164a4.66,4.66,0,0,0,3.05,1.24c.78,0,1.47-.36,1.47-1,0-1.67-5.46-1.45-5.46-5,0-2.1,1.87-3.31,4.29-3.31a5.31,5.31,0,0,1,3.76,1.28l-1,2.06a4.25,4.25,0,0,0-2.74-1c-.73,0-1.44.31-1.44,1,0,1.59,5.46,1.38,5.46,5,0,1.87-1.64,3.36-4.31,3.36A6.34,6.34,0,0,1,367.6,166l1.29-2"/><rect class="cls-2" x="378.52" y="164.58" width="2.81" height="2.79"/><path class="cls-2" d="M81.05,127.37a17.69,17.69,0,0,0-.81,4.61c0,4.73,3.65,7.67,11.19,7.67,10,0,13.81-3.64,16.08-11.37l6.55-22.3h-9.3l-6.54,22.1c-.72,2.47-2.15,3.52-5.07,3.52-2.7,0-3.67-1.33-3-3.56L96.65,106h-9.3l-6.3,21.39"/><polyline class="cls-2" points="206.33 139.19 228.25 139.19 230.63 131.36 217.9 131.36 219.38 126.33 230.53 126.33 232.81 118.71 221.66 118.71 223.17 113.57 235.9 113.57 238.13 105.98 216.16 105.98 206.33 139.19"/><path class="cls-2" d="M350,105.5c-9.06,0-15.8,1.05-20.25,17.79a30.23,30.23,0,0,0-1.24,7.64c0,5.36,2.86,8.73,12,8.73a25.14,25.14,0,0,0,7.4-1.05l2.27-7.68a27.82,27.82,0,0,1-6.26.61c-4.22,0-5.36-1.33-5.36-3.47a20.56,20.56,0,0,1,.81-4.5c2.28-8.87,4.79-9.86,9.38-9.86a25.15,25.15,0,0,1,6.09.62l2.36-7.92a31.32,31.32,0,0,0-7.2-.91"/><path class="cls-2" d="M49.68,139a38.55,38.55,0,0,0,7.21.7c11.86,0,16.61-3.23,19.31-12.29L82.57,106h-9.3l-5.61,19.07a14.22,14.22,0,0,1-1.05,2.8c-1.52,2.76-4.55,3.51-8.06,3.51a52,52,0,0,1-6.45-.42l-2.42,8"/><path class="cls-2" d="M280.71,139.19h9.22L293.18,128h2.52l2.76,11.15h10l-3.69-12.63c2.8-.79,6-1.81,8.14-9.19a20.16,20.16,0,0,0,.82-5c0-4-2.37-6.37-8.31-6.37H290.54l-9.83,33.21m14.52-18.12,2.18-7.5h4.19c1.6,0,2.41.81,2.41,2.14,0,3.08-1.51,5.36-4.7,5.36Z"/><path class="cls-2" d="M173.37,120.08H160.94l-1.9,6.11H163l-1.56,5.25a17.73,17.73,0,0,1-2.84.24c-3.37,0-3.9-1.47-3.9-3.62a19.51,19.51,0,0,1,.77-4.54c2.28-8.88,4.93-10,9.54-10a39.59,39.59,0,0,1,8.59.95l2.41-7.73a39.85,39.85,0,0,0-9.77-1.24c-9.07,0-15.86,1-20.31,17.74a29.58,29.58,0,0,0-1.09,7.6c0,5.36,3.13,8.82,12.15,8.82A40.67,40.67,0,0,0,168,138.24l5.36-18.16"/><polyline class="cls-2" points="243 105.98 252.31 105.98 242.49 139.19 233.19 139.19 243 105.98"/><path class="cls-2" d="M119.38,106h7.78L132,123.67h.14s.76-2.88,1.47-5.36L137.25,106h9.17l-9.82,33.21h-7.78l-4.95-17.47h-.14s-.65,2.72-1.47,5.46l-3.55,12h-9.16L119.38,106"/><path class="cls-2" d="M257.8,106h7.78l4.85,17.69h.14s.76-2.88,1.46-5.36L275.69,106h9.16L275,139.19h-7.78l-4.94-17.47h-.14s-.65,2.72-1.47,5.46l-3.55,12H248L257.8,106"/><polyline class="cls-2" points="320.98 105.98 330.29 105.98 320.47 139.19 311.18 139.19 320.98 105.98"/><polyline class="cls-2" points="182.67 105.98 191.96 105.98 188.12 118.89 197.22 118.89 201.07 105.98 210.37 105.98 200.55 139.19 191.25 139.19 194.99 126.53 185.89 126.53 182.13 139.19 172.83 139.19 182.67 105.98"/><polyline class="cls-2" points="362.22 105.98 371.51 105.98 367.68 118.89 376.78 118.89 380.64 105.98 389.93 105.98 380.11 139.19 370.81 139.19 374.55 126.53 365.45 126.53 361.71 139.19 352.4 139.19 362.22 105.98"/><path class="cls-3" d="M83.89,103.13,69.71,89.52,48.17,103.13H60.36L53,127.9a42,42,0,0,0,5.83.38c2.65,0,4.18-.81,4.89-2.05a7.29,7.29,0,0,0,.84-2.13l6.32-21h13"/></g></g></svg>