<svg xmlns="http://www.w3.org/2000/svg" viewBox="0 0 348.02 62.39"><defs><style>.cls-1{fill:#eec82d;fill-rule:evenodd;}</style></defs><title>daewoo</title><g id="Capa_2" data-name="Capa 2"><g id="Capa_1-2" data-name="Capa 1"><path class="cls-1" d="M50.38,61.44C48.53,40,62.64,22.7,78.06,20.66,87.49,39.74,70,58,50.38,61.44Z"/><path class="cls-1" d="M66.93,8a36,36,0,0,1,7.28,6.67C54.5,25.16,48.44,44.36,49,61.68c-.85.16-1.8.23-2.58.37C44.91,37.08,55.89,19.11,66.93,8Z"/><path class="cls-1" d="M51.51,1.26a39.38,39.38,0,0,1,9.34,3.21c-11,21.28-16.49,33.34-15.71,57.7h0l-2.53.16h0c.21-34.24,3.36-41.08,8.9-61.07Z"/><path class="cls-1" d="M44.9.25A54.93,54.93,0,0,0,35.49.16c3,20.83,3.35,29.65,3.91,62.23.71,0,1.22,0,2.09,0C41.36,30,42.06,21.27,44.9.25Z"/><path class="cls-1" d="M29.17,1.26a39.28,39.28,0,0,0-9.33,3.21c11,21.28,16.49,33.34,15.69,57.7h0l2.55.16h0c-.22-34.24-3.37-41.08-8.91-61.07Z"/><path class="cls-1" d="M13.76,8a36.35,36.35,0,0,0-7.28,6.67c19.71,10.51,25.76,29.71,25.25,47,.87.16,1.82.23,2.6.37,1.46-25-9.51-42.94-20.56-54.07Z"/><path class="cls-1" d="M30.31,61.44C32.14,40,18.05,22.7,2.63,20.66-6.81,39.74,10.72,58,30.31,61.44Z"/><path class="cls-1" d="M91.88,11.82h18.18a47.76,47.76,0,0,1,9.17.59,18.88,18.88,0,0,1,7.36,3.17,15.58,15.58,0,0,1,4.68,5.64,19.28,19.28,0,0,1,1.65,8.25,17.1,17.1,0,0,1-1.65,7.36,15.66,15.66,0,0,1-5.08,6.07,24.09,24.09,0,0,1-7,2.77,47.08,47.08,0,0,1-8.78.69H91.88V11.82Zm11.84,25.83h5.51c3.63,0,6.47-.73,8.48-2.28a7.63,7.63,0,0,0,3.1-6.4,7.4,7.4,0,0,0-3.23-6.37,15.81,15.81,0,0,0-9.14-2.38h-4.72V37.65Z"/><path class="cls-1" d="M251.72,45.24h-9.86l-6.7-13.89L229,45.21H218.47l-9.7-24H187.26v4.42h19.07v7.55H187.26v4.22h21.51v7.82H148.49l-4.65-7.75-3.43,7.75H127.28l15.44-32.4h18.11l14.88,32.4V12.88h41.07l8.15,20,5.64-11.32-4-8.71H244l-4.26,8.71,5.64,11.32,8.31-20h11.38L251.72,45.24ZM151.46,20.7,144.1,37.06h15.51L151.46,20.7Z"/><path class="cls-1" d="M281.68,10.37c12.21,0,22.17,8.41,22.17,18.64s-10,18.61-22.17,18.61S259.54,39.24,259.54,29s9.93-18.64,22.14-18.64ZM271.94,29c0,6.1,4.39,11.08,9.73,11.08s9.73-5,9.73-11.08S287,17.92,281.68,17.92s-9.73,5-9.73,11.08Z"/><path class="cls-1" d="M325.85,10.37C338.06,10.37,348,18.78,348,29s-10,18.61-22.17,18.61S303.71,39.24,303.71,29s9.93-18.64,22.14-18.64ZM316.12,29c0,6.1,4.39,11.08,9.73,11.08s9.73-5,9.73-11.08-4.39-11.08-9.73-11.08-9.73,5-9.73,11.08Z"/></g></g></svg>