<svg xmlns="http://www.w3.org/2000/svg" viewBox="0 0 370 64.97"><defs><style>.cls-1{fill:#fff;}.cls-2{fill:#fcd006;}.cls-3{fill:#fcd213;}</style></defs><title>hyster-yale</title><g id="Capa_2" data-name="Capa 2"><g id="Layer_1" data-name="Layer 1"><g id="g24"><path id="path30" class="cls-1" d="M79.82,34.6H84l4.67,7.58,4.67-7.58H97.6V52.51H93.71V40.81l-5,7.65h-.1l-5-7.58V52.51H79.82"/><path id="path32" class="cls-1" d="M111.51,45l-2.36-5.81L106.79,45Zm-4.11-10.55H111l7.62,18h-4.09l-1.62-4h-7.51l-1.62,4h-4"/><path id="path34" class="cls-1" d="M121.76,38.23h-5.41V34.6h14.72v3.63h-5.41V52.51h-3.91"/><path id="path36" class="cls-1" d="M133.52,34.6h13.4V38.1H137.4v3.64h8.38v3.51H137.4V49H147v3.51H133.52"/><path id="path38" class="cls-1" d="M157.33,43.3c1.9,0,3-1,3-2.53v-.05c0-1.69-1.17-2.56-3.07-2.56h-3.88V43.3h4Zm-7.87-8.7h8.12a7.05,7.05,0,0,1,5.18,1.82,5.65,5.65,0,0,1,1.52,4.09v.05a5.56,5.56,0,0,1-3.81,5.55l4.34,6.4h-4.57l-3.81-5.73h-3.07v5.73h-3.91"/><path id="path40" class="cls-1" d="M167.43,52.51h3.91V34.6h-3.91V52.51Z"/><path id="path42" class="cls-1" d="M185.43,45l-2.36-5.81L180.71,45Zm-4.11-10.55h3.6l7.62,18h-4.09l-1.62-4h-7.52l-1.63,4h-4"/><path id="path44" class="cls-1" d="M194.72,34.6h3.91V48.93h8.86v3.58H194.72"/><path id="path46" class="cls-1" d="M209.68,49.9,212,47.11a8.12,8.12,0,0,0,5.31,2.18c1.6,0,2.56-.64,2.56-1.69v0c0-1-.61-1.51-3.58-2.28-3.58-.92-5.89-1.92-5.89-5.48v-.05c0-3.25,2.59-5.4,6.22-5.4a10.23,10.23,0,0,1,6.6,2.28l-2,3a8.3,8.3,0,0,0-4.62-1.77c-1.5,0-2.28.69-2.28,1.56v.05c0,1.18.76,1.56,3.83,2.35,3.61.95,5.64,2.25,5.64,5.37v.05c0,3.56-2.69,5.55-6.52,5.55a11.26,11.26,0,0,1-7.54-2.87"/><path id="path48" class="cls-1" d="M237.09,34.6H241v7.09h7.21V34.6h3.91V52.51h-3.91V45.32H241v7.19h-3.91"/><path id="path50" class="cls-1" d="M266,45l-2.36-5.81L261.31,45Zm-4.11-10.55h3.61l7.62,18h-4.09l-1.62-4h-7.52l-1.63,4h-4"/><path id="path52" class="cls-1" d="M274.82,34.6h3.61l8.33,11v-11h3.86V52.51h-3.33l-8.61-11.39V52.51h-3.86"/><path id="path54" class="cls-1" d="M300.74,49a5.09,5.09,0,0,0,5.36-5.35v-.05a5.13,5.13,0,0,0-5.36-5.4h-3V49ZM293.81,34.6h6.93c5.59,0,9.45,3.86,9.45,8.91v.05c0,5-3.86,9-9.45,9h-6.93"/><path id="path56" class="cls-1" d="M312.49,34.6h3.91V48.93h8.86v3.58H312.49"/><path id="path58" class="cls-1" d="M327.82,52.51h3.91V34.6h-3.91V52.51Z"/><path id="path60" class="cls-1" d="M335.11,34.6h3.6l8.33,11v-11h3.86V52.51h-3.33L339,41.12V52.51h-3.86"/><path id="path62" class="cls-1" d="M352.8,43.61v-.05a9.16,9.16,0,0,1,9.32-9.27,9.71,9.71,0,0,1,7,2.46l-2.46,3A6.52,6.52,0,0,0,362,37.92a5.36,5.36,0,0,0-5.11,5.58v.05a5.35,5.35,0,0,0,5.38,5.68A6.19,6.19,0,0,0,366,48.16V45.6H362V42.2h7.72V50a11.48,11.48,0,0,1-7.59,2.84,8.93,8.93,0,0,1-9.34-9.21"/><path id="path64" class="cls-1" d="M79.88.52h8.39V11.95H99V.52h8.39V31.05H99V19.45H88.27v11.6H79.88"/><path id="path66" class="cls-1" d="M120.67,19.63,109.16.52h9.56L125,11.65,131.23.52h9.39l-11.51,19V31.05h-8.44"/><path id="path68" class="cls-1" d="M137.67,26.52l4.67-5.63a15.52,15.52,0,0,0,9.82,3.66c2.25,0,3.46-.79,3.46-2.09v-.09c0-1.27-1-2-5.1-2.92-6.45-1.48-11.42-3.32-11.42-9.6V9.77C139.1,4.1,143.55,0,150.82,0a19,19,0,0,1,12.46,4.06l-4.2,6a15.11,15.11,0,0,0-8.48-3c-2,0-3,.87-3,2v.09c0,1.4,1,2,5.23,3,7,1.53,11.29,3.79,11.29,9.51v.09c0,6.24-4.89,9.94-12.24,9.94a21,21,0,0,1-14.19-5.06"/><path id="path70" class="cls-1" d="M173.83,7.94h-9.08V.52h26.56V7.94h-9.08V31.05h-8.39"/><path id="path72" class="cls-1" d="M194.12.52h24.35v7.2h-16v4.62H217V19H202.43v4.84h16.26v7.2H194.12"/><path id="path74" class="cls-1" d="M235.17,15.18c2.86,0,4.5-1.4,4.5-3.62v-.09c0-2.4-1.73-3.62-4.54-3.62h-5.49v7.33ZM221.24.52h14.32c4.63,0,7.83,1.22,9.86,3.31a9.5,9.5,0,0,1,2.68,7.11V11a9.65,9.65,0,0,1-6.23,9.38l7.22,10.64h-9.69l-6.1-9.25h-3.68v9.25h-8.39"/><path id="path76" class="cls-1" d="M251.39,21.06h14.19V13.78H251.39Z"/><path id="path78" class="cls-1" d="M274.4,19.63,262.9.52h9.56l6.23,11.12L285,.52h9.39l-11.51,19V31.05H274.4"/><path id="path80" class="cls-1" d="M305.68,19l-3.37-8.68L298.89,19ZM298.32.31h8.09L319.3,31.05h-9L308.1,25.6H296.42l-2.16,5.45h-8.82"/><path id="path82" class="cls-1" d="M319.65.52H328V23.64H342.7v7.41H319.65"/><path id="path84" class="cls-1" d="M345.43.52h24.35v7.2h-16v4.62h14.53V19H353.74v4.84H370v7.2H345.43"/><path id="path86" class="cls-2" d="M15,52.82H66.26V1.14H15V52.82Z"/><path id="path88" class="cls-1" d="M71.21,57.36H10.47c-3.45,0-1.33-1.48-1.33-2.72V2.75C9.15,1.51,8.88.52,7.56.52H.93L0,1.26V6.08l1.72.69V60.52c0,3.21.53,4.45,3.45,4.45H15.25l56-5.14a1.26,1.26,0,0,0,0-2.47"/><path id="path90" class="cls-3" d="M79.82,60.13H370V58.32H79.82Z"/></g></g></g></svg>