<svg xmlns="http://www.w3.org/2000/svg" viewBox="0 0 410.63 12"><defs><style>.cls-1{fill:#faca00;}.cls-2{fill:#2e2e2e;}</style></defs><title>line-1</title><g id="Capa_2" data-name="Capa 2"><g id="Object"><polygon class="cls-1" points="398.63 12 16.03 12 28.03 0 410.63 0 398.63 12"/><polygon class="cls-2" points="141.92 0 125.89 0 113.89 12 129.92 12 141.92 0"/><polygon class="cls-2" points="170.4 0 154.37 0 142.37 12 158.4 12 170.4 0"/><polygon class="cls-2" points="198.87 0 182.84 0 170.84 12 186.87 12 198.87 0"/><polygon class="cls-2" points="56.5 0 40.47 0 28.47 12 44.5 12 56.5 0"/><polygon class="cls-2" points="227.34 0 211.31 0 199.32 12 215.34 12 227.34 0"/><polygon class="cls-2" points="84.97 0 68.95 0 56.95 12 72.97 12 84.97 0"/><polygon class="cls-2" points="113.45 0 97.42 0 85.42 12 101.45 12 113.45 0"/><polygon class="cls-2" points="284.29 0 268.26 0 256.26 12 272.29 12 284.29 0"/><polygon class="cls-2" points="398.18 0 382.16 0 370.16 12 386.19 12 398.18 0"/><polygon class="cls-2" points="369.71 0 353.68 0 341.69 12 357.71 12 369.71 0"/><polygon class="cls-2" points="341.24 0 325.21 0 313.21 12 329.24 12 341.24 0"/><polygon class="cls-2" points="28.03 0 12 0 0 12 16.03 12 28.03 0"/><polygon class="cls-2" points="312.76 0 296.74 0 284.74 12 300.76 12 312.76 0"/><polygon class="cls-2" points="255.81 0 239.79 0 227.79 12 243.82 12 255.81 0"/></g></g></svg>