<svg xmlns="http://www.w3.org/2000/svg" viewBox="0 0 438.1 262.9"><defs><style>.cls-1{fill:#fff;}.cls-2{fill:#211915;}.cls-3{fill:#bf0024;}</style></defs><title>r-1</title><g id="Capa_2" data-name="Capa 2"><g id="Capa_1-2" data-name="Capa 1"><rect class="cls-1" width="438.1" height="262.9"/><path class="cls-2" d="M165.14,148v1.64h1.64c2,0,2.91-.42,3-1.64v-.16c0-1.22-.9-1.48-2.91-1.48h-1.75V148Zm11.06,2.38a7.75,7.75,0,0,1-3.23,1.06l5.82,6.83h-9.84l-3-3.86c-.16-.26-.53-.69-1-1.43a17.94,17.94,0,0,1,.11,2.49v2.8h-8.47V141.8H172.6c3.65,0,5.56,1.53,5.56,4.66a5,5,0,0,1-.21,1.59,4.49,4.49,0,0,1-1.75,2.33ZM319.88,148v1.64h1.69c2,0,2.91-.42,3-1.64v-.16c0-1.22-.9-1.48-2.86-1.48h-1.85V148ZM331,150.37a7.25,7.25,0,0,1-3.18,1.06l5.77,6.83h-9.79l-3-3.86c-.16-.26-.53-.69-1-1.43v5.29h-8.36V141.8h15.93c3.65,0,5.45,1.53,5.45,4.66a5,5,0,0,1-.21,1.59,4.14,4.14,0,0,1-1.69,2.33Zm75.52,0a4.7,4.7,0,0,1-.74-2.38v-.42c0-4.39,3.33-6.35,10.53-6.35a41.55,41.55,0,0,1,8,.85V147a55.81,55.81,0,0,0-6.61-.53c-2.22,0-3.28.05-3.28.79,0,.9,1.27.64,4,.74,3.28.05,5.34.74,6.19,2.38a4.76,4.76,0,0,1,.48,2.22c0,4.13-3.44,6.35-10.05,6.35a51.31,51.31,0,0,1-8.73-.85v-4.76a54.62,54.62,0,0,0,8.26.79c1.11,0,1.8-.11,1.8-.64s-.37-.63-1.16-.63c-1.11-.05-2.49-.05-4-.21-2.33-.32-3.92-1-4.76-2.28Zm-278.62,0V154h-9.74v4.23h-8.47V141.8h18.2v5.77h-9.74V149h9.74v1.32Zm25.61,0c-.16,5.77-3.81,8.47-11.32,8.47-7.36,0-11.06-2.7-11.22-8.47v-.42a11.73,11.73,0,0,1,.16-2c.74-4.6,4.39-6.77,11.06-6.77s10.43,2.17,11.17,6.77a11.73,11.73,0,0,1,.16,2v.42Zm-14,0c0,2.22,1,3.49,2.65,3.49s2.65-1.27,2.65-3.44a4.38,4.38,0,0,0-.53-2.43,2.65,2.65,0,0,0-4.23,0,4.3,4.3,0,0,0-.53,2.38Zm57.26,0,6.51,7.89h-9.53l-3-3.92a9.21,9.21,0,0,1-1.16-1.91c.05,1.06.05,2,.05,2.75v3.07h-8.31V141.8h8.31V146c0,.42,0,1.11-.05,2v.48a1.88,1.88,0,0,1,.21-.48c.16-.42.48-.79.74-1.32l3-4.87h10.16L198.53,148l-1.85,2.28.11.11Zm17.36,0v2h7v5.93H205.62V141.8h8.52v8.57Zm18.58,0v7.89H224.2V141.8h8.52v8.57Zm22.17,0V154h-9.74v4.23h-8.47V141.8h18.2v5.77h-9.74V149h9.74v1.32Zm16.46,0v7.89h-8.47v-9.95h-5V141.8h18.47v6.51h-5v2.06Zm32.33,0v7.89h-8.47v-9.95h-5V141.8h18.52v6.51h-5v2.06Zm40.91,0v.79c0,1.8.16,2.7,1.53,2.7s1.69-.9,1.69-2.7V141.8h8.47v10c0,5.08-2.8,7-10.16,7-4.07,0-6.93-.74-8.52-2.28-1.11-1-1.59-2.59-1.59-4.76v-10h8.57v8.57Zm23.71,0c0,1.69,1.27,2.49,3.92,2.49a23.35,23.35,0,0,0,6.3-.79v5.72a30.71,30.71,0,0,1-7.78,1.06c-7.36,0-11-2.8-11.17-8.47v-.42a11.75,11.75,0,0,1,.16-2c.74-4.5,4.34-6.61,11-6.61a43.49,43.49,0,0,1,7.78.69v6.46c-1.43-.21-2.7-.42-3.86-.53-.63-.05-1.27-.11-1.8-.11a12.38,12.38,0,0,0-1.53.11c-2,.21-3,1.06-3,2.38Zm29.16,0,6.51,7.89h-9.53l-3-3.92a9.19,9.19,0,0,1-1.16-1.91v5.82h-8.2V141.8h8.2v6.67c.05-.16.16-.32.21-.48.21-.42.42-.79.74-1.32l3-4.87h10.16L399.2,148l-1.85,2.28.11.11Z"/><polygon class="cls-3" points="26.8 134.07 12.93 158.15 40.77 158.15 54.74 134.07 26.8 134.07 26.8 134.07"/><polygon class="cls-3" points="82.48 134.07 96.5 158.15 68.66 158.15 54.74 134.07 82.48 134.07 82.48 134.07"/><polygon class="cls-3" points="40.77 109.94 54.74 85.8 68.66 109.94 54.74 134.07 40.77 109.94 40.77 109.94"/><path class="cls-2" d="M301.38,129.73c-.05-.85-.9-1.59-1.16-2s-.9-.64-1.69-.64H295v5.19h3.39a2.58,2.58,0,0,0,1.85-.58c.26-.26,1.16-1.11,1.16-2v-.05ZM295,118.14v2.43h3.44a2.73,2.73,0,0,0,1.59-.64c.26-.37,1.11-1.16,1.11-1.8a3,3,0,0,0-1-1.75,2.06,2.06,0,0,0-1.64-.64H295v2.38Zm-13.5,11.59v-19.9h22.86a8.26,8.26,0,0,1,5.56,1.75c1.43.85,2.38,2.91,2.38,5.19a5.77,5.77,0,0,1-.16,1.38,5.71,5.71,0,0,1-1.69,3.07c-1.22,1.17-1.43,1.91-3.92,2.38a11.21,11.21,0,0,1,5.87,2.17,5.56,5.56,0,0,1,1.75,4,3.25,3.25,0,0,1,.05.74c0,2.59-.85,4.5-2.59,5.72s-4.66,2-7.94,2H281.48v-8.42Z"/><polygon class="cls-2" points="373.72 138.15 373.72 109.72 386.9 109.56 386.9 119.52 394.1 119.57 394.1 109.72 407.23 109.72 407.23 138.15 394.1 138.15 394.1 128.04 386.9 127.98 386.9 137.99 373.72 138.15 373.72 138.15"/><path class="cls-2" d="M258.72,138.89a30.41,30.41,0,0,0,8.15-1,15.32,15.32,0,0,0,5.82-2.81,14.8,14.8,0,0,0,2.65-3.18A10.11,10.11,0,0,0,276.5,127v-17.2H263.38v17.94c0,1.69-.9,2-.64,1.8s-.79,1.91-4,2.28c-3.18-.37-4.08-2.54-3.92-2.28s-.69-.11-.69-1.8V109.83H241V127a8.6,8.6,0,0,0,1.22,4.92,13.14,13.14,0,0,0,2.54,3.18,15.59,15.59,0,0,0,5.87,2.81,29.84,29.84,0,0,0,8,1Z"/><path class="cls-2" d="M208.17,124.49a9.05,9.05,0,0,0,2.7,1.48,31.78,31.78,0,0,0,7.78,2.12c2.86.58,4.45,1.11,4.45,2s-.69,1.32-1.85,1.32a18.67,18.67,0,0,1-3.81-.05,20.73,20.73,0,0,1-4.66-1.16,54.57,54.57,0,0,1-6.72-3.44l-.05,8.57a48.71,48.71,0,0,0,7.41,2.75,53.9,53.9,0,0,0,9.21,1c5.87,0,8-.9,10.43-2.75a8.13,8.13,0,0,0,3.44-7.62,5.66,5.66,0,0,0-1.85-4.08c-1.22-1.17-1.59-1.22-3.55-2.12a43.64,43.64,0,0,0-7.78-2.17c-3-.53-4.92-1.22-4.92-2.12s.58-1.27,1.8-1.48a10.67,10.67,0,0,1,4.29.05c1.8.26,3.18.9,4.66,1.22,1.48.48,4.34,2,6.77,3.12v-7.62a49.22,49.22,0,0,0-7.36-3.07,51.1,51.1,0,0,0-9.26-1.22c-5.82,0-7.83,1-10.43,2.75a8.1,8.1,0,0,0-3.76,7.73c.11,1.8,1.64,3.71,3.07,4.82Z"/><path class="cls-2" d="M339.69,124.49a8.42,8.42,0,0,0,2.7,1.48,31.32,31.32,0,0,0,7.73,2.12c2.86.58,4.5,1.11,4.5,2s-.74,1.32-1.91,1.32a18.14,18.14,0,0,1-3.76-.05,20.73,20.73,0,0,1-4.66-1.16,47.94,47.94,0,0,1-6.72-3.44l-.11,8.57a53.26,53.26,0,0,0,7.41,2.75,53.42,53.42,0,0,0,9.26,1c5.82,0,7.83-.9,10.43-2.75,2.43-1.59,3.6-4.29,3.44-7.62a5.66,5.66,0,0,0-1.85-4.08,10.32,10.32,0,0,0-3.55-2.12,47.05,47.05,0,0,0-7.83-2.17c-3-.53-4.92-1.22-4.92-2.12s.64-1.27,1.91-1.48a10.4,10.4,0,0,1,4.23.05c1.69.26,3.12.9,4.6,1.22a62.81,62.81,0,0,1,6.77,3.12v-7.62a47.59,47.59,0,0,0-7.41-3.07,50.65,50.65,0,0,0-9.1-1.22c-5.93,0-7.94,1-10.48,2.75a8.14,8.14,0,0,0-3.81,7.73c.16,1.8,1.69,3.71,3.12,4.82Z"/><polygon class="cls-2" points="181.34 138.15 181.34 117.29 173.67 117.29 173.67 109.94 201.93 109.94 201.93 117.29 194.31 117.29 194.31 138.15 181.34 138.15 181.34 138.15"/><polygon class="cls-2" points="156.1 138.04 156.1 109.67 169.22 109.67 169.22 138.04 156.1 138.04 156.1 138.04"/><polygon class="cls-2" points="412.04 138.04 412.04 109.67 425.17 109.67 425.17 138.04 412.04 138.04 412.04 138.04"/><polygon class="cls-2" points="318.21 138.04 318.21 109.67 331.38 109.67 331.38 138.04 318.21 138.04 318.21 138.04"/><polygon class="cls-2" points="130.06 138.25 138.47 124.76 138.52 138.15 151.23 138.15 148.53 109.83 135.3 109.83 130.06 119.3 124.71 109.83 111.53 109.83 108.78 138.15 121.48 138.15 121.59 124.76 130.06 138.25 130.06 138.25"/></g></g></svg>