<svg xmlns="http://www.w3.org/2000/svg" viewBox="0 0 438.1 262.9"><defs><style>.cls-1{fill:#fff;}.cls-2{fill:#992126;}</style></defs><title>r-6</title><g id="Capa_2" data-name="Capa 2"><g id="Capa_1-2" data-name="Capa 1"><rect class="cls-1" width="438.1" height="262.9"/><rect id="Rectangle" class="cls-2" x="61.15" y="35.87" width="318.54" height="191.15"/><path id="Shape" class="cls-1" d="M341.29,193.36c1.38-3.85,5.6-12.22,10.83-12.22a1.88,1.88,0,0,1,1.89,1.16,3.12,3.12,0,0,1-.07,2.54c-1.82,4.36-7.05,7.63-12.65,8.51m-32-7.2c-.22,3.64-5.38,15.2-11.85,15.2-2.84,0-3-2.84-2.4-5.31.95-4,6.4-13.67,11.49-13.67,2.11,0,2.91,1.89,2.76,3.78M156.47,199c-4.8,3.05-9.67,4.94-14.61,4.94-7.42,0-11.56-2.84-11.56-6.47,0-2.54,2.4-4.87,6.76-4.87,5.82,0,12.36,3.05,19.41,6.4m184.25-3c4.22-.65,17.6-2.84,19.49-9.52,1.53-5.53-3.64-8.22-8.94-8.22-10.54,0-21.16,6.54-23.92,17.23a14.56,14.56,0,0,0-.29,1.75c-3.27,2.84-6.47,4.29-8.22,4.29-2,0-2.18-1.38-1.31-3.05l16.8-32.5H320.65l-8.94,17.38c-.65-2.4-3.42-5.24-9.45-5.24-11.49,0-18.18,9.52-20.5,16a15.26,15.26,0,0,0-.8,3.27c-3.2,2.76-6.4,4.22-8.14,4.22-2,0-2.18-1.38-1.31-3.05l4.87-9.38c2.47-4.87.29-10.18-6.47-10.18-5.82,0-11.2,3.13-17.74,7.93l3.64-7.13H241.68l-4.14,8.07c-4.51,8.73-12.51,13.81-15.78,13.81-2,0-2.25-1.38-1.31-3.05l10.18-18.76h-14L211,190.31A18.19,18.19,0,0,1,195.08,200c-5.82,0-11.71-1.45-17.89-3.42a124.55,124.55,0,0,0,28.72-24.65c18.1-20.87,30-28.79,49.88-28.79,25.59,0,35.12,9.67,35.12,17.67,0,6.11-2.91,8.07-5.31,9.23l.36,2.11c11.34-.44,17.67-6,17.67-12.51,0-11.27-19.34-19.85-49.81-19.85-26.25,0-49,10.83-64.35,27.12-8.36,8.8-16.51,18.54-24.72,25.81-6.91-2.11-14.11-3.85-21.67-3.85-14.61,0-23.92,3.71-23.92,10,0,5.67,10.4,9.16,22.61,9.16a60.79,60.79,0,0,0,23-5.09c6.47,2.84,13.23,5.09,20,5.09,8.94,0,16.43-4.58,21.3-8.8-2.33,4.8.65,8.8,6,8.8,5.09,0,13-3,19.78-9.23l-4.36,8.43h14.11l1.24-2.4c2.91-5.67,10.18-18.61,17.3-18.61,2.11,0,2.54,1.89,1.53,3.93l-4.51,8.8c-2.62,5.09.29,9.16,5.82,9.16,4.65,0,11.56-2.47,17.81-7.63a8.49,8.49,0,0,0,8.8,7.63c5.6,0,12.22-4.58,14.47-6.76-.36,3.27,1.31,6.76,6,6.76,3.85,0,10.69-2.54,16.94-7.85.8,4.36,4.51,8.36,12.65,8.36,6.69,0,15.2-2.91,20.72-6.47l-.07-2.54c-4.58,2.18-8.65,3.93-13.38,3.93-4.44-.15-7.13-3.42-6.25-7.56m-104-27c.58-3.56-2.18-6.47-6.11-6.47s-7.56,2.91-8.14,6.47,2.18,6.47,6.11,6.47,7.56-2.91,8.14-6.47"/><g id="Group"><polygon id="Path" class="cls-1" points="81 71.39 81 55.76 83.1 55.76 83.1 69.93 87.97 69.93 87.97 71.39 81 71.39"/><path id="Shape-2" data-name="Shape" class="cls-1" d="M91.76,56.77a1.09,1.09,0,1,1,1.16-1.09A1.09,1.09,0,0,1,91.76,56.77Zm-1,14.61V59.17h2V71.39Z"/><path id="Path-2" data-name="Path" class="cls-1" d="M103,71.39v-8.8c0-1.16-.51-2.4-2.54-2.4a4.9,4.9,0,0,0-2.33.44V71.32h-2V59.75a10.41,10.41,0,0,1,4.44-.87c3.42,0,4.36,1.89,4.36,3.64v8.8h-2Z"/><path id="Shape-3" data-name="Shape" class="cls-1" d="M112.77,71.61c-3.49,0-5.38-2.47-5.38-6.11,0-4.07,2.18-6.4,5.31-6.4a5.7,5.7,0,0,1,1.89.29V53.65h2V70.81A8.14,8.14,0,0,1,112.77,71.61Zm1.89-11.2a5.54,5.54,0,0,0-1.53-.22c-2.84,0-3.71,2.47-3.71,5.09,0,2.91,1,5,3.49,5a2.84,2.84,0,0,0,1.75-.36V60.41Z"/><path id="Shape-4" data-name="Shape" class="cls-1" d="M121,66c.22,2.76,1.53,4.14,3.71,4.14a5.73,5.73,0,0,0,3-.73l.51,1.31a7.47,7.47,0,0,1-3.71.87c-3.2,0-5.45-2-5.45-6.4,0-4.14,2-6.33,4.94-6.33s4.65,1.89,4.65,6Zm2.91-5.74c-1.75,0-3.05,1.45-3.05,4.73l5.82-.87C126.73,61.28,125.64,60.26,123.89,60.26Z"/><path id="Path-3" data-name="Path" class="cls-1" d="M149.2,71.39c0-.22-1.24-11.63-1.24-11.63-.07-.95-.15-1.82-.15-1.82h-.07a15.8,15.8,0,0,1-.44,1.82s-3.2,11.42-3.27,11.63h-1.38c-.07-.22-3.27-11.71-3.27-11.71-.22-.95-.44-1.82-.44-1.82h-.07a13.5,13.5,0,0,1-.15,1.82s-1.24,11.49-1.24,11.71h-1.82l1.89-15.56h2.18l3.13,11.27c.29,1,.44,1.75.44,1.75h.07s.15-.73.44-1.75L147,55.83h2.18l1.89,15.56H149.2Z"/><path id="Shape-5" data-name="Shape" class="cls-1" d="M158.07,71.61c-3.2,0-4.65-1.38-4.65-3.64,0-3.27,3.05-4.22,6.83-4.58v-.73c0-1.89-1.16-2.4-2.69-2.4a6.28,6.28,0,0,0-2.91.8l-.51-1.16a8.36,8.36,0,0,1,3.71-.87c2.25,0,4.29.95,4.29,4v7.85A11.67,11.67,0,0,1,158.07,71.61Zm2.18-7.2c-3.05.36-4.94,1-4.94,3.49,0,1.75,1.09,2.47,2.91,2.47a4.22,4.22,0,0,0,2-.44Z"/><path id="Path-4" data-name="Path" class="cls-1" d="M169,71.46a2.85,2.85,0,0,1-3.05-3.05v-8h-1.38V59.17h1.38V56.34l2-.58v3.42H170v1.24h-2v7.93c0,.95.44,1.75,1.53,1.75.22,0,.36-.07.58-.07v1.24A2,2,0,0,1,169,71.46Z"/><path id="Shape-6" data-name="Shape" class="cls-1" d="M173.84,66c.22,2.76,1.53,4.14,3.71,4.14a5.73,5.73,0,0,0,3-.73l.51,1.31a7.47,7.47,0,0,1-3.71.87c-3.2,0-5.45-2-5.45-6.4,0-4.14,2-6.33,4.94-6.33s4.65,1.89,4.65,6Zm3-5.74c-1.75,0-3.05,1.45-3.05,4.73l5.82-.87C179.66,61.28,178.57,60.26,176.83,60.26Z"/><path id="Path-5" data-name="Path" class="cls-1" d="M189.4,60.48a3.52,3.52,0,0,0-2.76.22V71.39h-2V59.83c1.24-.58,2.33-.95,5.24-.87Z"/><path id="Shape-7" data-name="Shape" class="cls-1" d="M193.69,56.77a1.09,1.09,0,1,1,1.16-1.09A1.09,1.09,0,0,1,193.69,56.77Zm-1,14.61V59.17h2V71.39Z"/><path id="Shape-8" data-name="Shape" class="cls-1" d="M202.27,71.61c-3.2,0-4.65-1.38-4.65-3.64,0-3.27,3.05-4.22,6.83-4.58v-.73c0-1.89-1.16-2.4-2.69-2.4a6.28,6.28,0,0,0-2.91.8l-.51-1.16a8.36,8.36,0,0,1,3.71-.87c2.25,0,4.29.95,4.29,4v7.85A11.67,11.67,0,0,1,202.27,71.61Zm2.18-7.2c-3.05.36-4.94,1-4.94,3.49,0,1.75,1.09,2.47,2.91,2.47a4.22,4.22,0,0,0,2-.44Z"/><polygon id="Path-6" data-name="Path" class="cls-1" points="209.54 71.39 209.54 53.57 211.51 53.57 211.51 71.39 209.54 71.39"/><polygon id="Path-7" data-name="Path" class="cls-1" points="228.09 71.39 228.09 64.04 222.12 64.04 222.12 71.39 220.01 71.39 220.01 55.76 222.12 55.76 222.12 62.66 228.09 62.66 228.09 55.76 230.12 55.76 230.12 71.39 228.09 71.39"/><path id="Shape-9" data-name="Shape" class="cls-1" d="M237.68,71.61c-3.2,0-4.65-1.38-4.65-3.64,0-3.27,3.05-4.22,6.83-4.58v-.73c0-1.89-1.16-2.4-2.69-2.4a6.28,6.28,0,0,0-2.91.8l-.51-1.16a8.36,8.36,0,0,1,3.71-.87c2.25,0,4.29.95,4.29,4v7.85A11.67,11.67,0,0,1,237.68,71.61Zm2.11-7.2c-3.05.36-4.94,1-4.94,3.49,0,1.75,1.09,2.47,2.91,2.47a4.22,4.22,0,0,0,2-.44V64.41Z"/><path id="Path-8" data-name="Path" class="cls-1" d="M251.72,71.39v-8.8c0-1.16-.51-2.4-2.54-2.4a4.9,4.9,0,0,0-2.33.44V71.32h-2V59.75a10.41,10.41,0,0,1,4.44-.87c3.42,0,4.36,1.89,4.36,3.64v8.8h-2Z"/><path id="Shape-10" data-name="Shape" class="cls-1" d="M261.46,71.61c-3.49,0-5.38-2.47-5.38-6.11,0-4.07,2.18-6.4,5.31-6.4a5.7,5.7,0,0,1,1.89.29V53.65h2V70.81A7.7,7.7,0,0,1,261.46,71.61Zm1.89-11.2a5.54,5.54,0,0,0-1.53-.22c-2.84,0-3.71,2.47-3.71,5.09,0,2.91,1,5,3.49,5a2.84,2.84,0,0,0,1.75-.36V60.41Z"/><polygon id="Path-9" data-name="Path" class="cls-1" points="268.73 71.39 268.73 53.57 270.69 53.57 270.69 71.39 268.73 71.39"/><path id="Shape-11" data-name="Shape" class="cls-1" d="M275.2,56.77a1.09,1.09,0,1,1,1.16-1.09A1.09,1.09,0,0,1,275.2,56.77Zm-1,14.61V59.17h2V71.39Z"/><path id="Path-10" data-name="Path" class="cls-1" d="M286.47,71.39v-8.8c0-1.16-.51-2.4-2.54-2.4a4.9,4.9,0,0,0-2.33.44V71.32h-2V59.75a10.41,10.41,0,0,1,4.44-.87c3.42,0,4.36,1.89,4.36,3.64v8.8h-2Z"/><path id="Shape-12" data-name="Shape" class="cls-1" d="M295.34,76.48a7.44,7.44,0,0,1-3.78-.87l.58-1.31A6.25,6.25,0,0,0,295,75c2.25,0,3.13-1.38,3.13-3.2V71a5.24,5.24,0,0,1-2.47.51c-2.91,0-4.8-2.33-4.8-6s1.89-6.54,5.53-6.54a7.16,7.16,0,0,1,3.64.87V71.61C300.07,74.73,298.25,76.48,295.34,76.48Zm2.76-16a3.89,3.89,0,0,0-1.75-.36c-2.47,0-3.56,2-3.56,5.31s1,4.94,3.34,4.94a3.44,3.44,0,0,0,1.89-.51l.07-9.38Z"/></g></g></g></svg>