<svg xmlns="http://www.w3.org/2000/svg" viewBox="0 0 438.1 262.9"><defs><style>.cls-1{fill:#fff;}.cls-2{fill:#222481;fill-rule:evenodd;}</style></defs><title>r-9</title><g id="Capa_2" data-name="Capa 2"><g id="Capa_1-2" data-name="Capa 1"><rect class="cls-1" width="438.1" height="262.9"/><polygon class="cls-2" points="317.39 109.92 297.51 109.92 297.51 159.62 276.07 159.62 276.07 125.61 262.99 125.61 262.99 106.26 297.51 106.26 297.51 89.52 317.39 89.52 317.39 109.92 317.39 109.92"/><path class="cls-2" d="M355.06,111l-5.23,12.55c-4.71-.52-11.51-6.28-16.22-1.57-.52,2.62,2.62,3.14,4.71,4.19,5.75,1.57,12,2.62,14.65,8.89,3.14,6.28,2.62,15.69-2.62,20.4-8.37,7.32-23,7.85-33,3.14-2.09-1.57-5.23-1.57-7.32-3.66l4.71-13.08c6.28,1,13.6,7.32,19.35,3.14,1.57-4.18-3.14-3.14-4.71-4.71-5.75-1-12.55-2.62-15.17-8.89s-2.09-14.65,3.14-19.88c6.28-6.28,16.74-7.85,25.63-5.75,4.19,1.57,8.37,2.62,12,5.23Z"/><polygon class="cls-2" points="49.56 106.26 50.61 129.8 61.6 106.26 86.18 106.26 74.67 130.84 86.7 159.62 63.69 159.62 50.61 134.51 50.09 159.62 28.12 159.62 28.64 106.26 49.56 106.26 49.56 106.26"/><polygon class="cls-2" points="169.88 106.26 177.2 125.61 184 106.26 203.36 106.26 212.25 156.48 228.47 106.78 249.91 106.78 268.22 159.62 245.73 159.62 238.93 135.55 232.65 159.62 192.9 159.62 189.23 141.83 183.48 159.62 171.97 159.62 165.69 141.31 162.03 159.62 143.2 159.62 150.52 106.26 169.88 106.26 169.88 106.26"/><path class="cls-2" d="M382.26,141.83c0,4.71,6.8,4.18,6.8,0v-35H410v37.66A17.48,17.48,0,0,1,400,158.57c-8.37,3.66-22.49,3.66-27.72,0-6.28-4.71-9.42-10.46-9.94-14.65V106.78h19.88v35Z"/><path class="cls-2" d="M138.49,121.43c4.71,9.94,2.09,22.49-4.71,30.34-7.85,7.32-18.31,11.51-29.29,8.37-7.32-1.57-14.65-8.37-17.79-15.17-3.14-8.89-3.14-19.35,1.57-27.2,7.32-11,19.35-15.17,31.91-12.55,7.32,2.62,15.17,8.89,18.31,16.22Zm-26.68,3.14c-2.09,1-5.23,1.57-6.28,4.18-2.09,2.62-1,6.8.52,9.42,2.62,2.62,6.8,2.62,9.94,1.57,3.14-1.57,4.71-5.23,4.18-9.42-1-3.14-4.71-6.28-8.37-5.75Z"/></g></g></svg>