<svg xmlns="http://www.w3.org/2000/svg" viewBox="0 0 438.1 262.9"><defs><style>.cls-1,.cls-3{fill:#fff;}.cls-2{fill:#c02338;}.cls-2,.cls-3{fill-rule:evenodd;}</style></defs><title>r-8</title><g id="Capa_2" data-name="Capa 2"><g id="Capa_1-2" data-name="Capa 1"><rect class="cls-1" width="438.1" height="262.9"/><path class="cls-2" d="M91.83,183.35a50,50,0,1,0-50-50,50.07,50.07,0,0,0,50,50Z"/><polygon class="cls-3" points="93.15 120.54 101.34 120.54 118.31 120.54 126.5 120.54 126.5 129.23 126.5 136.66 118.31 136.66 118.31 129.23 114.36 129.23 114.36 151.87 118.63 151.87 118.63 159.39 114.36 159.39 105.21 159.39 100.94 159.39 100.94 151.87 105.21 151.87 105.21 129.23 101.34 129.23 101.34 136.66 93.15 136.66 93.15 129.23 93.15 120.54"/><path class="cls-3" d="M67.67,106.76H77.81a10.63,10.63,0,0,1,10.61,10.61h0a10.62,10.62,0,0,1-2,6.27,11.76,11.76,0,0,1,4.1,8.92h0a11.84,11.84,0,0,1-11.8,11.81H56.57v-7.72H61V114H56.57v-7.22h11.1ZM75.57,128h-6v8.67h6a4.35,4.35,0,0,0,4.33-4.33h0A4.35,4.35,0,0,0,75.57,128Zm-6-7.22h6.3a3.39,3.39,0,1,0,0-6.78h-6.3Z"/><path class="cls-3" d="M93.77,156.55v-7.14H44.47a47.45,47.45,0,0,0,3.06,7.14Z"/><path class="cls-3" d="M122.77,149.41v7.14h13.35a50.91,50.91,0,0,0,3.06-7.14Z"/><path class="cls-2" d="M224.77,152.19l-12.27-30.1H200.55l-12.27,30.1,11.8,0,6.45-16.72L213,152.14Z"/><polygon class="cls-2" points="226.56 152.47 237.51 152.47 249.15 122.08 238.2 122.08 234.74 131.12 230.93 122.08 219.19 122.08 228.86 146.47 226.56 152.47"/><polygon class="cls-2" points="268.94 151.98 268.71 151.98 264.84 151.98 260.62 138.15 255.65 151.9 244.06 151.9 255.38 122.5 265.09 122.5 268.82 132.96 272.54 122.5 282.25 122.5 293.59 151.9 281.99 151.9 277.02 138.15 272.79 151.98 268.94 151.98"/><path class="cls-2" d="M309,120.34a16.29,16.29,0,1,1-16.29,16.29A16.3,16.3,0,0,1,309,120.34Zm0,11.78a4.51,4.51,0,1,1-4.51,4.51,4.52,4.52,0,0,1,4.51-4.51Z"/><path class="cls-2" d="M377.32,122.26H364.15v29.91h12.37v.08h4.75a15,15,0,1,0,0-30Zm0,20.32V131.91h.86a5.33,5.33,0,0,1,0,10.67Z"/><polygon class="cls-2" points="348.48 122.53 360.31 122.53 360.31 152 348.48 152 339.59 140.1 339.59 152 327.76 152 327.76 122.53 339.59 122.53 348.48 134.4 348.48 122.53"/><path class="cls-2" d="M156.45,122.16h20a10,10,0,0,1,10,10h0a10,10,0,0,1-5.14,8.73l6.6,11.3H174.45l-5.72-9.76v9.67H156.45Zm12.29,7.32v7h1.71a3.5,3.5,0,0,0,3.49-3.49h0a3.51,3.51,0,0,0-3.49-3.51Z"/></g></g></svg>