<svg xmlns="http://www.w3.org/2000/svg" viewBox="0 0 1107.62 198.47"><defs><style>.cls-1{fill:#fff;}.cls-2{fill:#c7aa36;}.cls-3{fill:#cfb032;}</style></defs><title>rona-logo-large-2</title><g id="Capa_2" data-name="Capa 2"><g id="Capa_1-2" data-name="Capa 1"><path class="cls-1" d="M0,2.22H19.48q19.48,0,26.38,1.5A18.16,18.16,0,0,1,57.1,11.41q4.35,6.18,4.35,19.71,0,12.35-3.07,16.6t-12.09,5.1q8.17,2,11,5.43a16.22,16.22,0,0,1,3.5,6.24q.69,2.84.69,15.65V108H35.89V72.88q0-8.5-1.34-10.52t-7-2V108H0ZM27.52,20.33V43.86q4.64,0,6.5-1.27t1.86-8.27V28.5q0-5-1.8-6.6T27.52,20.33Z"/><path class="cls-1" d="M135,64.19q0,15.95-.75,22.58a25.29,25.29,0,0,1-15.39,20.56,38.91,38.91,0,0,1-15.69,2.94,39.87,39.87,0,0,1-15.26-2.78A25.44,25.44,0,0,1,72.1,87.07q-.78-6.54-.78-22.88V46.08q0-15.95.75-22.58A25.29,25.29,0,0,1,87.46,2.94,38.9,38.9,0,0,1,103.15,0a39.88,39.88,0,0,1,15.26,2.78A25.44,25.44,0,0,1,134.2,23.2q.78,6.54.78,22.88ZM107.46,29.41q0-7.39-.82-9.45a3.25,3.25,0,0,0-3.37-2.06,3.76,3.76,0,0,0-3.3,1.67q-1.14,1.67-1.14,9.84V78.83q0,9.22.75,11.37t3.5,2.16a3.39,3.39,0,0,0,3.59-2.48q.78-2.48.78-11.83Z"/><path class="cls-1" d="M206.69,2.22V108H182.57L168.25,59.94V108h-23V2.22h23l15.43,47.65V2.22Z"/><path class="cls-1" d="M265.3,2.22,281,108H252.92l-1.48-19h-9.84l-1.65,19H211.49l14-105.83Zm-14.58,68q-2.09-18-4.19-44.45-4.21,30.4-5.28,44.45Z"/><path class="cls-2" d="M317.28,55.56V73.8H282.57V55.56Z"/><path class="cls-1" d="M410,2.22V108H386l0-71.44L376.37,108H359.31l-10.1-69.81,0,69.81H325.13V2.22h35.61q1.58,9.54,3.27,22.5l3.91,26.92,6.32-49.42Z"/><path class="cls-1" d="M484,64.19q0,15.95-.75,22.58a25.29,25.29,0,0,1-15.39,20.56,38.91,38.91,0,0,1-15.69,2.94,39.87,39.87,0,0,1-15.26-2.78,25.44,25.44,0,0,1-15.79-20.43q-.78-6.54-.78-22.88V46.08q0-15.95.75-22.58A25.29,25.29,0,0,1,436.44,2.94,38.9,38.9,0,0,1,452.13,0,39.88,39.88,0,0,1,467.4,2.78,25.44,25.44,0,0,1,483.18,23.2q.78,6.54.78,22.88ZM456.45,29.41q0-7.39-.82-9.45a3.25,3.25,0,0,0-3.37-2.06,3.76,3.76,0,0,0-3.3,1.67q-1.14,1.67-1.14,9.84V78.83q0,9.22.75,11.37t3.5,2.16a3.39,3.39,0,0,0,3.59-2.48q.78-2.48.78-11.83Z"/><path class="cls-1" d="M555.67,2.22V108H531.55L517.24,59.94V108h-23V2.22h23l15.43,47.65V2.22Z"/><path class="cls-1" d="M622.15,2.22V23.4H605.81V108H578.29V23.4H562V2.22Z"/><path class="cls-1" d="M670.63,2.22,686.37,108H658.25l-1.48-19h-9.84l-1.66,19H616.82l14-105.83ZM656,70.27q-2.09-18-4.19-44.45-4.21,30.4-5.28,44.45Z"/><path class="cls-1" d="M755.3,48.3H727.78V29.91q0-8-.88-10t-3.89-2q-3.4,0-4.31,2.42t-.92,10.46V79.94q0,7.71.92,10.07t4.12,2.35q3.07,0,4-2.36t.95-11.07V65.63H755.3v4.12q0,16.43-2.32,23.3t-10.26,12q-7.94,5.17-19.58,5.17-12.09,0-19.94-4.38a21.29,21.29,0,0,1-10.39-12.13q-2.55-7.75-2.55-23.3V39.55A137.58,137.58,0,0,1,691,22.39a24,24,0,0,1,4.67-11A26.05,26.05,0,0,1,706.5,3a39,39,0,0,1,15.85-3q12.16,0,20.07,4.7t10.39,11.72q2.48,7,2.48,21.83Z"/><path class="cls-1" d="M812.74,2.22,828.47,108H800.35l-1.48-19H789l-1.66,19H758.92L773,2.22Zm-14.58,68q-2.09-18-4.19-44.45-4.21,30.4-5.28,44.45Z"/><path class="cls-1" d="M833.15,2.22h19.48q19.48,0,26.38,1.5a18.16,18.16,0,0,1,11.24,7.68q4.35,6.18,4.35,19.71,0,12.35-3.07,16.6t-12.09,5.1q8.17,2,11,5.43a16.22,16.22,0,0,1,3.5,6.24q.69,2.84.69,15.65V108H869V72.88q0-8.5-1.34-10.52t-7-2V108H833.15Zm27.52,18.11V43.86q4.64,0,6.5-1.27T869,34.32V28.5q0-5-1.8-6.6T860.67,20.33Z"/><path class="cls-1" d="M968.39,41.18H940.87V31.57q0-9.08-.79-11.37t-3.73-2.29a3.46,3.46,0,0,0-3.46,2q-.92,2-.92,10.07V80.73q0,7.13.92,9.38a3.56,3.56,0,0,0,3.66,2.26,4,4,0,0,0,4.08-2.55q1.08-2.55,1.08-9.94V67.33h-5.56V51.25h32.23V108H951.1l-2.55-7.58a19.23,19.23,0,0,1-7.1,7.35,20,20,0,0,1-10.11,2.45,26.29,26.29,0,0,1-13-3.37,24.84,24.84,0,0,1-9.19-8.33,26.39,26.39,0,0,1-3.93-10.43,125.33,125.33,0,0,1-.78-16.37V40.33q0-15.16,1.63-22t9.38-12.58Q923.22,0,935.51,0q12.09,0,20.07,5T966,16.77q2.42,6.83,2.42,19.84Z"/><path class="cls-1" d="M1026.61,2.22,1042.35,108h-28.12l-1.48-19h-9.84l-1.66,19H972.8l14-105.83Zm-14.58,68q-2.09-18-4.19-44.45-4.21,30.4-5.28,44.45Z"/><path class="cls-1" d="M1105.33,34.25h-25.56V26.41q0-5.49-1-7a3.61,3.61,0,0,0-3.27-1.5,4.16,4.16,0,0,0-3.76,2,11.76,11.76,0,0,0-1.27,6.15q0,5.3,1.43,8t7.78,6.47q18.38,10.91,23.15,17.9T1107.62,81q0,11.31-2.65,16.67t-10.23,9a40.47,40.47,0,0,1-17.65,3.63q-11,0-18.86-4.18T1048,95.43q-2.42-6.47-2.42-18.37V70.14h25.56V83q0,5.95,1.08,7.65t3.82,1.7a4.48,4.48,0,0,0,4.09-2.16,12.31,12.31,0,0,0,1.34-6.41q0-9.35-2.55-12.22T1066,62q-10.26-6.8-13.6-9.87a23.08,23.08,0,0,1-5.52-8.5q-2.19-5.43-2.19-13.86,0-12.16,3.1-17.78a20.89,20.89,0,0,1,10-8.79A40,40,0,0,1,1074.61,0q10.72,0,18.27,3.46t10,8.73q2.45,5.26,2.45,17.88Z"/><path class="cls-3" d="M0,197.53V128.24H17.6a40.86,40.86,0,0,1,12.54,1.67,14.33,14.33,0,0,1,7.79,5.69q2.67,4,2.67,10.95a31.78,31.78,0,0,1-.81,7.53A14,14,0,0,1,37,159.76a12.44,12.44,0,0,1-5.39,3.63l10.23,34.13H28.47L19.6,165.79H13.44v31.73Zm13.4-39.69H17.6a15,15,0,0,0,6.2-1.07,6.39,6.39,0,0,0,3.31-3.42,15.59,15.59,0,0,0,1-6q0-5.22-2-7.83t-7.74-2.61H13.44Z"/><path class="cls-3" d="M50.66,197.53V128.24H81.45v8.9H64.06v19.93H77.74v8.81H64.06V188.8H81.63v8.72Z"/><path class="cls-3" d="M89.42,197.53V128.24H111q6.61,0,10.73,2.31a14,14,0,0,1,6.07,6.71,26.26,26.26,0,0,1,1.95,10.65q0,6.76-2.45,10.91a14.28,14.28,0,0,1-6.84,6,26.18,26.18,0,0,1-10.37,1.88h-7.25v30.79Zm13.4-39.69h5.07a13.26,13.26,0,0,0,5.66-1,5.35,5.35,0,0,0,2.81-3.17,18.12,18.12,0,0,0,.77-5.86,26,26,0,0,0-.59-6.12,5.27,5.27,0,0,0-2.54-3.46,12.82,12.82,0,0,0-6.11-1.11h-5.07Z"/><path class="cls-3" d="M129.54,197.53l14.67-69.28h14.31l14.67,69.28H160.78l-2.9-16H145.12l-3,16Zm16.94-24h10l-5-29.08Z"/><path class="cls-3" d="M180.16,197.53V128.24h17.57a40.86,40.86,0,0,1,12.54,1.67,14.33,14.33,0,0,1,7.79,5.69q2.67,4,2.67,10.95a31.78,31.78,0,0,1-.81,7.53,14,14,0,0,1-2.76,5.69,12.44,12.44,0,0,1-5.39,3.63L222,197.53H208.6l-8.88-31.73h-6.16v31.73Zm13.4-39.69h4.17a15,15,0,0,0,6.2-1.07,6.39,6.39,0,0,0,3.31-3.42,15.59,15.59,0,0,0,1-6q0-5.22-2-7.83t-7.74-2.61h-4.89Z"/><path class="cls-3" d="M227.26,197.53l14.67-69.28h14.31l14.67,69.28H258.5l-2.9-16H242.83l-3,16Zm16.94-24h10l-5-29.08Z"/><path class="cls-3" d="M297.17,198.47q-8.06,0-12.63-3a15.7,15.7,0,0,1-6.38-8.17,36,36,0,0,1-1.81-11.93V150.65a37.6,37.6,0,0,1,1.81-12.32,14.88,14.88,0,0,1,6.38-8q4.57-2.82,12.63-2.82,7.61,0,11.91,2.44a13.63,13.63,0,0,1,6.11,7A28.24,28.24,0,0,1,317,147.4v5.82H304.15v-6a40.69,40.69,0,0,0-.32-5.3,6.42,6.42,0,0,0-1.72-3.81q-1.4-1.41-4.85-1.41t-5,1.5a7.06,7.06,0,0,0-2,4,32.32,32.32,0,0,0-.45,5.69V178a25.21,25.21,0,0,0,.63,6.2,6.37,6.37,0,0,0,2.31,3.68,7.52,7.52,0,0,0,4.57,1.24q3.35,0,4.75-1.5a7.16,7.16,0,0,0,1.77-4,38.89,38.89,0,0,0,.36-5.56v-6.24H317v5.56a31.93,31.93,0,0,1-1.72,10.91,14.31,14.31,0,0,1-6,7.44Q305,198.47,297.17,198.47Z"/><path class="cls-3" d="M326.7,197.53V128.24h13.22v69.28Z"/><path class="cls-3" d="M371.16,198.47q-7.79,0-12.41-2.74a15.31,15.31,0,0,1-6.61-7.87,33.51,33.51,0,0,1-2-12.15V149.8a32.48,32.48,0,0,1,2-12,14.94,14.94,0,0,1,6.61-7.66q4.62-2.65,12.41-2.65,8,0,12.54,2.65a15.23,15.23,0,0,1,6.61,7.66,31.84,31.84,0,0,1,2,12v26a32.25,32.25,0,0,1-2,12,15.84,15.84,0,0,1-6.61,7.87Q379.13,198.47,371.16,198.47Zm0-9.32a7.43,7.43,0,0,0,4.94-1.37,6.78,6.78,0,0,0,2.13-3.76,23.57,23.57,0,0,0,.54-5.22v-31.9a22.86,22.86,0,0,0-.54-5.22A6.53,6.53,0,0,0,376.1,138a7.61,7.61,0,0,0-4.94-1.33,7.46,7.46,0,0,0-4.8,1.33,6.42,6.42,0,0,0-2.17,3.63,22.86,22.86,0,0,0-.54,5.22v31.9a25.6,25.6,0,0,0,.5,5.22,6.44,6.44,0,0,0,2.13,3.76A7.46,7.46,0,0,0,371.16,189.14Z"/><path class="cls-3" d="M402.22,197.53V128.24h9.33l17.84,39.52V128.24h11v69.28h-8.88l-17.93-41.4v41.4Z"/><path class="cls-3" d="M483.82,197.53V171.09L469,128.24h12.5l9.06,27.46L499,128.24h12.23l-14.67,42.85v26.43Z"/><path class="cls-3" d="M539.16,197.53l1.27-69.28h13.86l10.42,48,10.87-48H589l1.36,69.28h-10l-1.09-48.16-10.42,48.16H560.8l-10.6-48.33-1,48.33Z"/><path class="cls-3" d="M597.48,197.53l14.67-69.28h14.31l14.67,69.28H628.73l-2.9-16H613.06l-3,16Zm16.94-24h10l-5-29.08Z"/><path class="cls-3" d="M648.11,197.53V128.24h9.33l17.84,39.52V128.24h11v69.28h-8.87l-17.93-41.4v41.4Z"/><path class="cls-3" d="M704.8,197.53v-60H693.12v-9.32H729.7v9.32H718.2v60Z"/><path class="cls-3" d="M736.4,197.53V128.24H767.2v8.9H749.81v19.93h13.68v8.81H749.81V188.8h17.57v8.72Z"/><path class="cls-3" d="M775.17,197.53V128.24h9.33l17.84,39.52V128.24h11v69.28h-8.87l-17.93-41.4v41.4Z"/><path class="cls-3" d="M824.89,197.53V128.24h13.22v69.28Z"/><path class="cls-3" d="M849.25,197.53l1.27-69.28h13.86l10.42,48,10.87-48h13.4l1.36,69.28h-10l-1.09-48.16L879,197.53h-8.06L860.3,149.2l-1,48.33Z"/><path class="cls-3" d="M911.1,197.53V128.24h13.22v69.28Z"/><path class="cls-3" d="M935.65,197.53V128.24h30.79v8.9H949v19.93h13.68v8.81H949V188.8h17.57v8.72Z"/><path class="cls-3" d="M974.41,197.53V128.24h9.33l17.84,39.52V128.24h11v69.28h-8.87l-17.93-41.4v41.4Z"/><path class="cls-3" d="M1031.1,197.53v-60h-11.68v-9.32H1056v9.32h-11.5v60Z"/><path class="cls-3" d="M1082.27,198.47q-7.79,0-12.41-2.74a15.31,15.31,0,0,1-6.61-7.87,33.52,33.52,0,0,1-2-12.15V149.8a32.49,32.49,0,0,1,2-12,15,15,0,0,1,6.61-7.66q4.62-2.65,12.41-2.65,8,0,12.54,2.65a15.23,15.23,0,0,1,6.61,7.66,31.82,31.82,0,0,1,2,12v26a32.23,32.23,0,0,1-2,12,15.84,15.84,0,0,1-6.61,7.87Q1090.24,198.47,1082.27,198.47Zm0-9.32a7.43,7.43,0,0,0,4.94-1.37,6.78,6.78,0,0,0,2.13-3.76,23.57,23.57,0,0,0,.54-5.22v-31.9a22.86,22.86,0,0,0-.54-5.22,6.53,6.53,0,0,0-2.13-3.63,7.61,7.61,0,0,0-4.94-1.33,7.47,7.47,0,0,0-4.8,1.33,6.41,6.41,0,0,0-2.17,3.63,22.86,22.86,0,0,0-.54,5.22v31.9a25.63,25.63,0,0,0,.5,5.22,6.44,6.44,0,0,0,2.13,3.76A7.45,7.45,0,0,0,1082.27,189.14Z"/></g></g></svg>