<svg xmlns="http://www.w3.org/2000/svg" viewBox="0 0 1190.86 266.14"><defs><style>.cls-1{fill:#fff;}.cls-2{fill:#c7aa36;}.cls-3{fill:#eec82d;}.cls-4{fill:#cfb032;}</style></defs><title>rona-logo-large_1</title><g id="Capa_2" data-name="Capa 2"><g id="Capa_1-2" data-name="Capa 1"><path class="cls-1" d="M83.24,2.22h19.48q19.48,0,26.38,1.5a18.16,18.16,0,0,1,11.24,7.68q4.35,6.18,4.35,19.71,0,12.35-3.07,16.6t-12.09,5.1q8.17,2,11,5.43a16.22,16.22,0,0,1,3.5,6.24q.69,2.84.69,15.65V108H119.13V72.88q0-8.5-1.34-10.52t-7-2V108H83.24Zm27.52,18.11V43.86q4.64,0,6.5-1.27t1.86-8.27V28.5q0-5-1.8-6.6T110.76,20.33Z"/><path class="cls-1" d="M218.22,64.19q0,15.95-.75,22.58a25.29,25.29,0,0,1-15.39,20.56,38.91,38.91,0,0,1-15.69,2.94,39.87,39.87,0,0,1-15.26-2.78,25.44,25.44,0,0,1-15.79-20.43q-.78-6.54-.78-22.88V46.08q0-15.95.75-22.58A25.29,25.29,0,0,1,170.7,2.94,38.9,38.9,0,0,1,186.39,0a39.88,39.88,0,0,1,15.26,2.78A25.44,25.44,0,0,1,217.44,23.2q.78,6.54.78,22.88ZM190.71,29.41q0-7.39-.82-9.45a3.25,3.25,0,0,0-3.37-2.06,3.76,3.76,0,0,0-3.3,1.67q-1.14,1.67-1.14,9.84V78.83q0,9.22.75,11.37t3.5,2.16a3.39,3.39,0,0,0,3.59-2.48q.78-2.48.78-11.83Z"/><path class="cls-1" d="M289.93,2.22V108H265.81L251.49,59.94V108h-23V2.22h23l15.43,47.65V2.22Z"/><path class="cls-1" d="M348.55,2.22,364.28,108H336.16l-1.48-19h-9.84l-1.65,19H294.73l14-105.83ZM334,70.27q-2.09-18-4.19-44.45-4.21,30.4-5.28,44.45Z"/><path class="cls-2" d="M400.53,55.56V73.8H365.82V55.56Z"/><path class="cls-1" d="M493.28,2.22V108H469.23l0-71.44L459.62,108H442.56l-10.1-69.81,0,69.81H408.37V2.22H444q1.58,9.54,3.27,22.5l3.91,26.92,6.32-49.42Z"/><path class="cls-1" d="M567.21,64.19q0,15.95-.75,22.58a25.29,25.29,0,0,1-15.39,20.56,38.91,38.91,0,0,1-15.69,2.94,39.87,39.87,0,0,1-15.26-2.78,25.44,25.44,0,0,1-15.79-20.43q-.78-6.54-.78-22.88V46.08q0-15.95.75-22.58A25.29,25.29,0,0,1,519.69,2.94,38.9,38.9,0,0,1,535.38,0a39.88,39.88,0,0,1,15.26,2.78A25.44,25.44,0,0,1,566.43,23.2q.78,6.54.78,22.88ZM539.69,29.41q0-7.39-.82-9.45a3.25,3.25,0,0,0-3.37-2.06,3.76,3.76,0,0,0-3.3,1.67q-1.14,1.67-1.14,9.84V78.83q0,9.22.75,11.37t3.5,2.16a3.39,3.39,0,0,0,3.59-2.48q.78-2.48.78-11.83Z"/><path class="cls-1" d="M638.92,2.22V108H614.8L600.48,59.94V108h-23V2.22h23l15.43,47.65V2.22Z"/><path class="cls-1" d="M705.39,2.22V23.4H689.05V108H661.53V23.4H645.26V2.22Z"/><path class="cls-1" d="M753.88,2.22,769.61,108H741.49L740,89h-9.84l-1.66,19H700.06l14-105.83Zm-14.58,68q-2.09-18-4.19-44.45-4.21,30.4-5.28,44.45Z"/><path class="cls-1" d="M838.54,48.3H811V29.91q0-8-.88-10t-3.89-2q-3.4,0-4.31,2.42T801,30.79V79.94q0,7.71.92,10.07t4.12,2.35q3.07,0,4-2.36T811,78.93V65.63h27.52v4.12q0,16.43-2.32,23.3T826,105.1q-7.94,5.17-19.58,5.17-12.09,0-19.94-4.38a21.29,21.29,0,0,1-10.39-12.13Q773.5,86,773.5,70.46V39.55a137.58,137.58,0,0,1,.78-17.16,24,24,0,0,1,4.67-11A26.05,26.05,0,0,1,789.75,3,39,39,0,0,1,805.6,0q12.16,0,20.07,4.7t10.39,11.72q2.48,7,2.48,21.83Z"/><path class="cls-1" d="M896,2.22,911.72,108H883.59l-1.48-19h-9.84l-1.66,19H842.17l14-105.83Zm-14.58,68q-2.09-18-4.19-44.45-4.21,30.4-5.28,44.45Z"/><path class="cls-1" d="M916.39,2.22h19.48q19.48,0,26.38,1.5a18.16,18.16,0,0,1,11.24,7.68q4.35,6.18,4.35,19.71,0,12.35-3.07,16.6t-12.09,5.1q8.17,2,11,5.43a16.22,16.22,0,0,1,3.5,6.24q.69,2.84.69,15.65V108H952.28V72.88q0-8.5-1.34-10.52t-7-2V108H916.39Zm27.52,18.11V43.86q4.64,0,6.5-1.27t1.86-8.27V28.5q0-5-1.8-6.6T943.91,20.33Z"/><path class="cls-1" d="M1051.63,41.18h-27.52V31.57q0-9.08-.79-11.37t-3.73-2.29a3.46,3.46,0,0,0-3.46,2q-.92,2-.92,10.07V80.73q0,7.13.92,9.38a3.56,3.56,0,0,0,3.66,2.26,4,4,0,0,0,4.08-2.55q1.08-2.55,1.08-9.94V67.33h-5.56V51.25h32.23V108h-17.29l-2.55-7.58a19.23,19.23,0,0,1-7.1,7.35,20,20,0,0,1-10.11,2.45,26.29,26.29,0,0,1-13-3.37,24.84,24.84,0,0,1-9.19-8.33,26.39,26.39,0,0,1-3.93-10.43,125.33,125.33,0,0,1-.78-16.37V40.33q0-15.16,1.63-22t9.38-12.58q7.74-5.72,20-5.72,12.09,0,20.07,5t10.39,11.8q2.42,6.83,2.42,19.84Z"/><path class="cls-1" d="M1109.86,2.22,1125.59,108h-28.12L1096,89h-9.84l-1.66,19H1056l14-105.83Zm-14.58,68q-2.09-18-4.19-44.45-4.21,30.4-5.28,44.45Z"/><path class="cls-1" d="M1188.57,34.25H1163V26.41q0-5.49-1-7a3.61,3.61,0,0,0-3.27-1.5,4.16,4.16,0,0,0-3.76,2,11.76,11.76,0,0,0-1.27,6.15q0,5.3,1.43,8t7.78,6.47q18.38,10.91,23.15,17.9T1190.86,81q0,11.31-2.65,16.67t-10.23,9a40.47,40.47,0,0,1-17.65,3.63q-11,0-18.86-4.18t-10.23-10.65q-2.42-6.47-2.42-18.37V70.14h25.56V83q0,5.95,1.08,7.65t3.82,1.7a4.48,4.48,0,0,0,4.09-2.16,12.31,12.31,0,0,0,1.34-6.41q0-9.35-2.55-12.22T1149.29,62q-10.26-6.8-13.6-9.87a23.08,23.08,0,0,1-5.52-8.5Q1128,38.17,1128,29.74q0-12.16,3.1-17.78a20.89,20.89,0,0,1,10-8.79A40,40,0,0,1,1157.85,0q10.72,0,18.27,3.46t10,8.73q2.45,5.26,2.45,17.88Z"/><path id="path88" class="cls-3" d="M280.63,236.15H41.26c-13.6,0-5.24-5.83-5.24-10.72V20.94c0-4.89-1-8.79-6.23-8.79H3.66L0,15.07v19l6.78,2.72V248.61c0,12.65,2.09,17.54,13.6,17.54H60.1l220.69-20.26a5,5,0,0,0,0-9.73"/><path class="cls-4" d="M83.28,197.53V128.24h17.57a40.86,40.86,0,0,1,12.54,1.67,14.33,14.33,0,0,1,7.79,5.69q2.67,4,2.67,10.95a31.78,31.78,0,0,1-.81,7.53,14,14,0,0,1-2.76,5.69,12.44,12.44,0,0,1-5.39,3.63l10.23,34.13h-13.4l-8.88-31.73H96.68v31.73Zm13.4-39.69h4.17a15,15,0,0,0,6.2-1.07,6.39,6.39,0,0,0,3.31-3.42,15.59,15.59,0,0,0,1-6q0-5.22-2-7.83t-7.74-2.61H96.68Z"/><path class="cls-4" d="M133.9,197.53V128.24h30.79v8.9H147.31v19.93H161v8.81H147.31V188.8h17.57v8.72Z"/><path class="cls-4" d="M172.66,197.53V128.24h21.55q6.61,0,10.73,2.31a14,14,0,0,1,6.07,6.71A26.26,26.26,0,0,1,213,147.92q0,6.76-2.45,10.91a14.28,14.28,0,0,1-6.84,6,26.18,26.18,0,0,1-10.37,1.88h-7.25v30.79Zm13.4-39.69h5.07a13.26,13.26,0,0,0,5.66-1,5.35,5.35,0,0,0,2.81-3.17,18.12,18.12,0,0,0,.77-5.86,26,26,0,0,0-.59-6.12,5.27,5.27,0,0,0-2.54-3.46,12.82,12.82,0,0,0-6.11-1.11h-5.07Z"/><path class="cls-4" d="M212.78,197.53l14.67-69.28h14.31l14.67,69.28H244l-2.9-16H228.36l-3,16Zm16.94-24h10l-5-29.08Z"/><path class="cls-4" d="M263.41,197.53V128.24H281a40.86,40.86,0,0,1,12.54,1.67,14.33,14.33,0,0,1,7.79,5.69q2.67,4,2.67,10.95a31.78,31.78,0,0,1-.81,7.53,14,14,0,0,1-2.76,5.69A12.44,12.44,0,0,1,295,163.4l10.23,34.13h-13.4L283,165.79h-6.16v31.73Zm13.4-39.69H281a15,15,0,0,0,6.2-1.07,6.39,6.39,0,0,0,3.31-3.42,15.59,15.59,0,0,0,1-6q0-5.22-2-7.83t-7.74-2.61h-4.89Z"/><path class="cls-4" d="M310.5,197.53l14.67-69.28h14.31l14.67,69.28H341.75l-2.9-16H326.08l-3,16Zm16.94-24h10l-5-29.08Z"/><path class="cls-4" d="M380.42,198.47q-8.06,0-12.63-3a15.7,15.7,0,0,1-6.38-8.17,36,36,0,0,1-1.81-11.93V150.65a37.6,37.6,0,0,1,1.81-12.32,14.88,14.88,0,0,1,6.38-8q4.57-2.82,12.63-2.82,7.61,0,11.91,2.44a13.63,13.63,0,0,1,6.11,7,28.24,28.24,0,0,1,1.81,10.52v5.82H387.39v-6a40.69,40.69,0,0,0-.32-5.3,6.42,6.42,0,0,0-1.72-3.81q-1.4-1.41-4.85-1.41t-5,1.5a7.06,7.06,0,0,0-2,4,32.32,32.32,0,0,0-.45,5.69V178a25.21,25.21,0,0,0,.63,6.2,6.37,6.37,0,0,0,2.31,3.68,7.52,7.52,0,0,0,4.57,1.24q3.35,0,4.75-1.5a7.16,7.16,0,0,0,1.77-4,38.89,38.89,0,0,0,.36-5.56v-6.24h12.86v5.56a31.93,31.93,0,0,1-1.72,10.91,14.31,14.31,0,0,1-6,7.44Q388.2,198.47,380.42,198.47Z"/><path class="cls-4" d="M409.94,197.53V128.24h13.22v69.28Z"/><path class="cls-4" d="M454.41,198.47q-7.79,0-12.41-2.74a15.31,15.31,0,0,1-6.61-7.87,33.51,33.51,0,0,1-2-12.15V149.8a32.48,32.48,0,0,1,2-12,14.94,14.94,0,0,1,6.61-7.66q4.62-2.65,12.41-2.65,8,0,12.54,2.65a15.23,15.23,0,0,1,6.61,7.66,31.84,31.84,0,0,1,2,12v26a32.25,32.25,0,0,1-2,12,15.84,15.84,0,0,1-6.61,7.87Q462.38,198.47,454.41,198.47Zm0-9.32a7.43,7.43,0,0,0,4.94-1.37,6.78,6.78,0,0,0,2.13-3.76,23.57,23.57,0,0,0,.54-5.22v-31.9a22.86,22.86,0,0,0-.54-5.22,6.53,6.53,0,0,0-2.13-3.63,7.61,7.61,0,0,0-4.94-1.33,7.46,7.46,0,0,0-4.8,1.33,6.42,6.42,0,0,0-2.17,3.63,22.86,22.86,0,0,0-.54,5.22v31.9a25.6,25.6,0,0,0,.5,5.22,6.44,6.44,0,0,0,2.13,3.76A7.46,7.46,0,0,0,454.41,189.14Z"/><path class="cls-4" d="M485.47,197.53V128.24h9.33l17.84,39.52V128.24h11v69.28h-8.88l-17.93-41.4v41.4Z"/><path class="cls-4" d="M567.07,197.53V171.09l-14.85-42.85h12.5l9.06,27.46,8.51-27.46h12.23l-14.67,42.85v26.43Z"/><path class="cls-4" d="M622.4,197.53l1.27-69.28h13.86l10.42,48,10.87-48h13.4l1.36,69.28h-10l-1.09-48.16-10.42,48.16H644l-10.6-48.33-1,48.33Z"/><path class="cls-4" d="M680.73,197.53l14.67-69.28h14.31l14.67,69.28H712l-2.9-16H696.3l-3,16Zm16.94-24h10l-5-29.08Z"/><path class="cls-4" d="M731.35,197.53V128.24h9.33l17.84,39.52V128.24h11v69.28h-8.87l-17.93-41.4v41.4Z"/><path class="cls-4" d="M788,197.53v-60H776.36v-9.32h36.59v9.32h-11.5v60Z"/><path class="cls-4" d="M819.65,197.53V128.24h30.79v8.9H833.05v19.93h13.68v8.81H833.05V188.8h17.57v8.72Z"/><path class="cls-4" d="M858.41,197.53V128.24h9.33l17.84,39.52V128.24h11v69.28h-8.87l-17.93-41.4v41.4Z"/><path class="cls-4" d="M908.13,197.53V128.24h13.22v69.28Z"/><path class="cls-4" d="M932.49,197.53l1.27-69.28h13.86l10.42,48,10.87-48h13.4l1.36,69.28h-10l-1.09-48.16L962.2,197.53h-8.06l-10.6-48.33-1,48.33Z"/><path class="cls-4" d="M994.35,197.53V128.24h13.22v69.28Z"/><path class="cls-4" d="M1018.89,197.53V128.24h30.79v8.9h-17.39v19.93H1046v8.81h-13.68V188.8h17.57v8.72Z"/><path class="cls-4" d="M1057.65,197.53V128.24H1067l17.84,39.52V128.24h11v69.28H1087l-17.93-41.4v41.4Z"/><path class="cls-4" d="M1114.34,197.53v-60h-11.68v-9.32h36.59v9.32h-11.5v60Z"/><path class="cls-4" d="M1165.51,198.47q-7.79,0-12.41-2.74a15.31,15.31,0,0,1-6.61-7.87,33.52,33.52,0,0,1-2-12.15V149.8a32.49,32.49,0,0,1,2-12,15,15,0,0,1,6.61-7.66q4.62-2.65,12.41-2.65,8,0,12.54,2.65a15.23,15.23,0,0,1,6.61,7.66,31.82,31.82,0,0,1,2,12v26a32.23,32.23,0,0,1-2,12,15.84,15.84,0,0,1-6.61,7.87Q1173.48,198.47,1165.51,198.47Zm0-9.32a7.43,7.43,0,0,0,4.94-1.37,6.78,6.78,0,0,0,2.13-3.76,23.57,23.57,0,0,0,.54-5.22v-31.9a22.86,22.86,0,0,0-.54-5.22,6.53,6.53,0,0,0-2.13-3.63,7.61,7.61,0,0,0-4.94-1.33,7.47,7.47,0,0,0-4.8,1.33,6.41,6.41,0,0,0-2.17,3.63,22.86,22.86,0,0,0-.54,5.22v31.9a25.63,25.63,0,0,0,.5,5.22,6.44,6.44,0,0,0,2.13,3.76A7.45,7.45,0,0,0,1165.51,189.14Z"/></g></g></svg>