<svg xmlns="http://www.w3.org/2000/svg" viewBox="0 0 331.07 127.82"><defs><style>.cls-1{fill:#eec82d;fill-rule:evenodd;}</style></defs><title>yale_1</title><g id="Capa_2" data-name="Capa 2"><g id="Capa_1-2" data-name="Capa 1"><polygon class="cls-1" points="19.69 124.54 57.64 124.54 66.33 82.55 130.91 0 90.94 0 53.87 48.95 36.78 0 0 0 28.67 81.1 19.69 124.54 19.69 124.54 19.69 124.54"/><polygon class="cls-1" points="204.91 0 239.67 0 213.6 124.54 178.84 124.54 204.91 0 204.91 0 204.91 0"/><path class="cls-1" d="M145.48,67.57c-15.35-1.74-76.87-1-63.14,46.05,6.08,20.85,47.79,10.72,51,11H171l13.32-63.14h0c2.61-12.74,2.9-31.28-37.36-31.28S94.5,53.09,94.21,62.35h31.28c1.45-5.5,9.56-11.87,18.83-11.87s7.82,8.4,7,12.45h0l-5.79,27.23h0s-4.93,16-19.41,15.64c-10.43-.29-10-4.93-10.14-7.53-.29-4.35,2.32-9.85,25.49-11.58h0l4.05-19.12Z"/><path class="cls-1" d="M292.15,94.51c-1.16,1.16-7.82,10.72-18,10.72-7.53,0-16.51-8.11-13.61-24.91,3-17.24,13.9-28.09,25.78-27.8s11.3,8.4,11.88,11.58-.29,5.5-5.79,5.79H275.94c-6.08,0-12.17,3.19-11.59,18.54h58.22c6.08,0,8.06-6.1,8.4-10.14.58-7,.29-47.5-44.32-47.5-48.08,0-57.24,40-58.22,47.21-1.45,10.72-.58,49.82,44,49.82,37.94,0,52.13-29.54,53-33.31H292.15Z"/></g></g></svg>